
<svg enable-background="new 0 0 122.88 47.87" viewBox="0 0 122.88 47.87" xmlns="http://www.w3.org/2000/svg"><path clip-rule="evenodd" d="m4.98 27.65h24.72c2.16 0 4.01 1.39 4.7 3.33h20.28l-.76-4.02c-.17-.9.42-1.76 1.32-1.93.1-.02.2-.03.3-.03h65.68c.91 0 1.66.74 1.66 1.66 0 .19-.03.37-.09.54l-2.69 10.18c-.77 2.93-2.07 5.69-4.02 7.63-1.76 1.76-4.02 2.86-6.84 2.86h-42.5c-2.88 0-5.26-1.13-7.09-2.96-1.95-1.95-3.24-4.69-3.79-7.65l-.56-2.96h-20.9c-.69 1.93-2.54 3.33-4.7 3.33h-24.72c-2.73-.01-4.98-2.25-4.98-4.99s2.24-4.99 4.98-4.99zm99.51-27.17c.65-.65 1.7-.65 2.34 0s.65 1.7 0 2.34c-1.58 1.58-.86 2.93-.02 4.5 1.41 2.64 3.04 5.67.28 10.44-.46.79-1.47 1.06-2.26.6s-1.06-1.47-.6-2.26c1.83-3.18.68-5.34-.33-7.23-1.46-2.72-2.72-5.07.59-8.39zm-12.32 0c.65-.65 1.7-.65 2.34 0s.65 1.7 0 2.34c-1.58 1.58-.86 2.93-.02 4.5 1.41 2.64 3.04 5.67.28 10.44-.46.79-1.47 1.06-2.26.6s-1.06-1.47-.6-2.26c1.83-3.18.68-5.34-.33-7.23-1.46-2.72-2.72-5.07.59-8.39zm-12.31 0c.65-.65 1.7-.65 2.34 0 .65.65.65 1.7 0 2.34-1.58 1.58-.86 2.93-.02 4.5 1.41 2.64 3.04 5.67.28 10.44-.46.79-1.47 1.06-2.26.6s-1.06-1.47-.6-2.26c1.83-3.18.68-5.34-.33-7.23-1.47-2.72-2.73-5.07.59-8.39zm-12.32 0c.65-.65 1.7-.65 2.34 0 .65.65.65 1.7 0 2.34-1.58 1.58-.86 2.93-.02 4.5 1.41 2.64 3.04 5.67.28 10.44-.46.79-1.47 1.06-2.26.6s-1.06-1.47-.6-2.26c1.83-3.18.68-5.34-.33-7.23-1.46-2.72-2.72-5.07.59-8.39zm49.37 36.05 2.17-8.22h-61.54l1.57 8.34c.44 2.32 1.42 4.45 2.89 5.92 1.23 1.23 2.83 1.99 4.75 1.99h42.5c1.85 0 3.33-.73 4.5-1.89 1.5-1.51 2.53-3.73 3.16-6.14z" fill-rule="evenodd"/></svg>