<svg enable-background="new 0 0 122.88 121.87" viewBox="0 0 122.88 121.87" xmlns="http://www.w3.org/2000/svg"><path d="m97.34.74c.86-.93 2.3-.99 3.23-.13s.99 2.3.13 3.23l-18.72 20.26-.03.04c-2.29 2.77-3.86 5.33-4.56 7.67-.62 2.07-.53 3.95.39 5.59.49.88.33 1.96-.32 2.67l-8.89 9.62c-.87-.95-1.56-1.72-2.02-2.22-.21-.28-.45-.55-.7-.81l-.02.02c-.12-.13-.25-.25-.38-.37l7.6-8.23c-.89-2.38-.88-4.91-.06-7.6.88-2.92 2.75-6.03 5.44-9.27.06-.08.11-.16.18-.23l18.71-20.26zm-40.21 54.27c-.84-.94-.76-2.39.18-3.23s2.39-.76 3.23.18c9.41 10.54 38.5 41.73 46.56 53.39 10.63 15.05-5.83 19.79-11.29 14.31-13.64-13.19-42.6-46.82-55.33-61.08-4.58 1.94-9.03 2.24-13.5.96-4.81-1.37-9.52-4.58-14.3-9.51l-.06-.06c-3.64-3.84-6.49-7.63-8.55-11.38-2.11-3.86-3.4-7.68-3.86-11.47-.49-4.08-.11-7.88.99-11.25 1.29-3.96 3.58-7.31 6.58-9.8 3.02-2.5 6.73-4.12 10.87-4.62 3.44-.41 7.19-.06 11.07 1.21 5.37 1.75 11.63 6.1 16.82 11.68 3.83 4.11 7.11 8.92 9.06 13.87 2.03 5.16 2.65 10.5 1.02 15.5-.96 2.96-2.7 5.74-5.4 8.25-.93.86-2.37.8-3.23-.12-.86-.93-.8-2.37.12-3.23 2.09-1.95 3.43-4.08 4.16-6.33 1.26-3.87.73-8.16-.93-12.38-1.74-4.42-4.69-8.74-8.15-12.45-4.68-5.02-10.23-8.91-14.91-10.44-3.21-1.04-6.28-1.34-9.09-1-3.26.4-6.18 1.65-8.51 3.6-2.34 1.95-4.13 4.58-5.16 7.71-.89 2.73-1.2 5.87-.79 9.26.39 3.2 1.5 6.47 3.32 9.81 1.91 3.43 4.53 6.9 7.9 10.45l.02.03c4.22 4.35 8.27 7.15 12.28 8.29 3.79 1.08 7.65.66 11.68-1.35.92-.53 2.11-.35 2.84.47 12.42 13.91 42.63 48.92 56.01 61.89 5.81 2.37 9.03-.55 6.25-5.7-4.33-8.04-41.53-48.3-47.9-55.46zm-12.06 20.11-29.16 31.55c-.06.06-.11.12-.18.18-4.26 4.6 3.28 11.3 7.96 6.82l28.32-30.65 3.04 3.45-28.1 30.41c-.06.07-.12.13-.2.2-1.68 1.41-3.37 2.33-5.08 2.71-1.76.4-3.49.22-5.15-.56-.28-.11-.54-.25-.77-.46l-4.03-3.73c-.06-.06-.12-.11-.18-.18-1.56-1.8-2.3-3.72-2.1-5.75.19-1.92 1.21-3.79 3.14-5.59l29.44-31.86zm30.56-17.66 1.73-1.87c.86-.93 2.31-.99 3.23-.13s.99 2.3.13 3.23l-2 2.16zm28.82-50.03c.86-.93 2.3-.99 3.23-.13s.99 2.3.13 3.23l-16.41 17.77c-.86.93-2.3.99-3.23.13s-.99-2.3-.13-3.23zm7.1 6.57c.86-.93 2.3-.99 3.23-.13s.99 2.3.13 3.23l-16.4 17.76c-.86.93-2.3.99-3.23.13s-.99-2.3-.13-3.23zm7.36 6.83c.86-.93 2.3-.99 3.23-.13s.99 2.31.13 3.23l-18.72 20.27c-.07.07-.14.13-.21.2-4.26 4.1-8.33 6.47-12.22 7.14-4.22.73-8.09-.47-11.64-3.57-.95-.83-1.04-2.28-.22-3.22.83-.95 2.28-1.04 3.22-.22 2.45 2.14 5.07 2.98 7.84 2.49 2.98-.51 6.26-2.48 9.84-5.93l.02-.02 18.71-20.25z"/></svg>