<svg xmlns="http://www.w3.org/2000/svg" xmlns:xlink="http://www.w3.org/1999/xlink" width="50" zoomAndPan="magnify" viewBox="0 0 37.5 37.499999" height="50" preserveAspectRatio="xMidYMid meet" version="1.0"><defs><clipPath id="e5d07ebba7"><path d="M 3.066406 0.0078125 L 34.890625 0.0078125 L 34.890625 35.886719 L 3.066406 35.886719 Z M 3.066406 0.0078125 " clip-rule="nonzero"/></clipPath><clipPath id="a5c6ed6217"><path d="M 3.066406 17 L 5 17 L 5 24 L 3.066406 24 Z M 3.066406 17 " clip-rule="nonzero"/></clipPath><clipPath id="fee6e3a526"><path d="M 33 19 L 34.890625 19 L 34.890625 24 L 33 24 Z M 33 19 " clip-rule="nonzero"/></clipPath></defs><g clip-path="url(#e5d07ebba7)"><path fill="#fda538" d="M 34.765625 25.65625 C 34.132812 25.613281 33.464844 25.742188 32.859375 25.894531 C 32.511719 25.984375 32.125 26.09375 31.773438 26.261719 C 31.894531 26.054688 32.019531 25.84375 32.125 25.625 C 32.496094 24.859375 32.664062 23.988281 32.839844 23.160156 C 33.167969 21.59375 33.273438 19.949219 32.910156 18.378906 C 32.738281 17.628906 32.457031 16.859375 32.019531 16.222656 C 31.667969 15.71875 31.1875 15.335938 30.683594 14.996094 C 30.175781 14.648438 29.640625 14.335938 29.183594 13.914062 C 28.734375 13.503906 28.453125 13.003906 28.261719 12.425781 C 27.996094 11.625 27.824219 10.542969 28.195312 9.75 C 28.316406 9.402344 28.492188 9.085938 28.707031 8.792969 C 27.320312 9.519531 25.964844 10.328125 25.171875 11.742188 C 24.925781 12.179688 24.753906 12.664062 24.613281 13.144531 C 24.441406 13.722656 24.3125 14.332031 24.332031 14.9375 C 24.339844 15.335938 24.433594 15.757812 24.691406 16.050781 C 24.265625 15.992188 23.851562 15.855469 23.511719 15.585938 C 23.09375 15.257812 22.84375 14.773438 22.785156 14.246094 C 22.707031 13.574219 22.867188 12.878906 23.0625 12.242188 C 23.269531 11.570312 23.546875 10.925781 23.792969 10.269531 C 24.035156 9.628906 24.25 8.976562 24.335938 8.292969 C 24.417969 7.617188 24.371094 6.925781 24.253906 6.257812 C 24.03125 4.996094 23.394531 3.910156 22.429688 3.074219 C 21.828125 2.554688 21.105469 2.535156 20.296875 1.84375 C 19.925781 1.527344 19.605469 0.710938 19.640625 0.0078125 C 19.382812 0.554688 19.273438 1.136719 19.335938 1.75 C 19.410156 2.476562 19.824219 3.113281 19.886719 3.839844 C 19.941406 4.449219 19.6875 5.234375 19.132812 5.554688 C 18.496094 5.925781 17.859375 5.292969 17.574219 4.761719 C 17.46875 4.5625 17.398438 4.351562 17.355469 4.136719 C 17.230469 3.628906 17.1875 3.125 17.21875 2.625 C 17.050781 2.957031 16.941406 3.28125 16.878906 3.609375 C 16.789062 4.046875 16.785156 4.496094 16.832031 4.941406 C 16.851562 5.125 16.875 5.308594 16.910156 5.488281 C 17.019531 6.105469 17.195312 6.722656 17.1875 7.355469 C 17.179688 7.933594 16.960938 8.441406 16.617188 8.894531 C 15.992188 9.714844 15.101562 10.292969 14.523438 11.148438 C 13.992188 11.941406 13.945312 12.84375 14.054688 13.769531 C 14.148438 14.546875 14.351562 15.460938 14.988281 15.953125 C 14.457031 15.929688 13.96875 15.734375 13.628906 15.273438 C 13.242188 14.742188 13.09375 14.058594 13 13.417969 C 12.800781 11.988281 12.953125 10.398438 11.980469 9.214844 C 11.40625 8.519531 10.574219 8.152344 9.71875 7.960938 C 9.6875 7.957031 9.660156 7.960938 9.636719 7.972656 C 9.761719 8.058594 9.878906 8.148438 9.988281 8.25 C 10.683594 8.777344 11.261719 9.433594 11.074219 10.402344 C 10.863281 11.480469 9.871094 12.761719 9.546875 13.164062 C 8.910156 13.957031 8.1875 14.671875 7.5625 15.472656 C 6.894531 16.332031 6.375 17.3125 6.101562 18.371094 C 5.816406 19.480469 5.925781 20.589844 6.25 21.667969 C 6.203125 21.667969 6.15625 21.695312 6.132812 21.734375 C 5.722656 22.398438 5.789062 23.238281 5.976562 23.964844 C 6.164062 24.695312 6.492188 25.398438 6.90625 26.03125 C 6.390625 25.683594 5.835938 25.394531 5.277344 25.132812 C 4.941406 24.976562 4.597656 24.835938 4.242188 24.722656 C 3.886719 24.613281 3.5 24.527344 3.128906 24.597656 C 3.101562 24.601562 3.082031 24.621094 3.066406 24.644531 C 4.136719 25.5 4.265625 26.703125 4.117188 27.953125 C 4.117188 27.957031 4.117188 27.964844 4.117188 27.96875 C 4.132812 28.972656 4.363281 29.964844 4.789062 30.875 C 5.09375 31.523438 5.472656 32.132812 5.929688 32.683594 C 7.730469 34.855469 10.5625 35.65625 13.273438 35.761719 C 14 35.789062 14.722656 35.765625 15.449219 35.734375 C 15.855469 35.71875 16.261719 35.699219 16.667969 35.640625 C 17.003906 35.59375 17.320312 35.492188 17.640625 35.378906 C 17.964844 35.261719 18.296875 35.128906 18.640625 35.078125 C 18.976562 35.03125 19.292969 35.113281 19.605469 35.226562 C 19.957031 35.351562 20.292969 35.507812 20.652344 35.613281 C 21.027344 35.722656 21.425781 35.757812 21.816406 35.796875 C 23.285156 35.9375 24.753906 35.957031 26.191406 35.566406 C 27.546875 35.203125 28.726562 34.511719 29.835938 33.667969 C 30.859375 32.894531 31.9375 32.113281 32.664062 31.027344 C 33.054688 30.4375 33.289062 29.746094 33.53125 29.082031 C 33.667969 28.703125 33.792969 28.320312 33.933594 27.941406 C 34.070312 27.585938 34.238281 27.242188 34.40625 26.898438 C 34.574219 26.550781 34.742188 26.203125 34.882812 25.839844 C 34.917969 25.746094 34.863281 25.664062 34.765625 25.65625 " fill-opacity="1" fill-rule="nonzero"/></g><path fill="#fda538" d="M 27.8125 6.4375 C 27.765625 6.132812 27.636719 5.851562 27.453125 5.605469 C 27.0625 5.074219 26.332031 4.5 25.632812 4.796875 L 25.632812 4.800781 C 26.675781 5.421875 26.820312 6.71875 26.398438 7.8125 C 26.234375 8.226562 26.015625 8.613281 25.757812 8.976562 C 25.589844 9.210938 25.429688 9.453125 25.289062 9.703125 C 25.167969 9.925781 25.050781 10.144531 24.953125 10.375 C 25.144531 10.179688 25.359375 10 25.59375 9.84375 C 25.914062 9.628906 26.25 9.433594 26.570312 9.226562 C 26.746094 9.113281 26.914062 8.984375 27.0625 8.835938 C 27.140625 8.753906 27.21875 8.664062 27.285156 8.570312 C 27.5 8.269531 27.648438 7.917969 27.742188 7.5625 C 27.835938 7.195312 27.871094 6.8125 27.8125 6.4375 " fill-opacity="1" fill-rule="nonzero"/><path fill="#fda538" d="M 15.628906 6.695312 C 15.242188 6.28125 14.679688 6.042969 14.136719 5.914062 C 14.125 5.910156 14.113281 5.910156 14.101562 5.910156 C 14.496094 6.449219 14.683594 7.15625 14.609375 7.824219 C 14.59375 8.339844 14.457031 8.832031 14.269531 9.3125 C 14.183594 9.539062 14.089844 9.761719 14.007812 9.988281 C 14 10.058594 13.992188 10.128906 13.984375 10.203125 C 14.179688 9.972656 14.390625 9.753906 14.613281 9.550781 C 15.050781 9.144531 15.457031 8.742188 15.765625 8.242188 C 16.042969 7.792969 15.996094 7.09375 15.636719 6.703125 L 15.628906 6.695312 " fill-opacity="1" fill-rule="nonzero"/><g clip-path="url(#a5c6ed6217)"><path fill="#fda538" d="M 4.308594 22.144531 C 4.246094 21.808594 4.253906 21.445312 4.289062 21.101562 C 4.308594 20.898438 4.339844 20.691406 4.371094 20.488281 C 4.394531 20.046875 4.4375 19.605469 4.449219 19.160156 C 4.457031 18.65625 4.359375 18.230469 4.152344 17.816406 C 3.738281 19.015625 3.109375 20.316406 3.34375 21.597656 C 3.484375 22 3.738281 22.367188 4.078125 22.65625 C 4.226562 22.785156 4.378906 22.902344 4.527344 23.023438 C 4.417969 22.742188 4.339844 22.449219 4.308594 22.144531 " fill-opacity="1" fill-rule="nonzero"/></g><g clip-path="url(#fee6e3a526)"><path fill="#fda538" d="M 33.734375 23.242188 C 33.804688 23.136719 33.871094 23.03125 33.941406 22.921875 C 33.941406 22.910156 33.945312 22.902344 33.945312 22.890625 C 33.957031 22.878906 33.96875 22.867188 33.980469 22.855469 C 34.089844 22.679688 34.191406 22.5 34.285156 22.3125 C 34.785156 21.292969 34.496094 20.496094 33.835938 19.707031 L 33.824219 19.703125 C 33.917969 20.441406 34.050781 21.132812 33.972656 21.902344 C 33.929688 22.359375 33.84375 22.804688 33.734375 23.242188 " fill-opacity="1" fill-rule="nonzero"/></g><path fill="#fda538" d="M 30.621094 13.507812 C 30.617188 13.496094 30.613281 13.480469 30.605469 13.46875 C 30.597656 13.453125 30.59375 13.441406 30.585938 13.429688 C 30.546875 13.339844 30.511719 13.25 30.484375 13.15625 C 30.222656 12.445312 30.222656 11.574219 30.398438 10.847656 C 29.539062 11.21875 29.835938 12.359375 30.113281 13.03125 C 30.1875 13.207031 30.265625 13.378906 30.359375 13.542969 C 30.390625 13.621094 30.429688 13.695312 30.472656 13.769531 C 30.554688 13.910156 30.773438 13.78125 30.691406 13.640625 C 30.664062 13.597656 30.644531 13.550781 30.621094 13.507812 " fill-opacity="1" fill-rule="nonzero"/><path fill="#fda538" d="M 7.269531 14.164062 C 7.265625 14.183594 7.261719 14.203125 7.261719 14.21875 C 7.242188 14.382812 7.496094 14.382812 7.511719 14.21875 C 7.511719 14.242188 7.519531 14.183594 7.523438 14.171875 C 7.53125 14.144531 7.539062 14.117188 7.546875 14.089844 C 7.5625 14.046875 7.589844 13.992188 7.621094 13.9375 C 7.691406 13.8125 7.773438 13.691406 7.859375 13.578125 C 8.066406 13.304688 8.300781 13.046875 8.515625 12.777344 C 8.726562 12.515625 8.941406 12.246094 9.085938 11.9375 C 9.207031 11.6875 9.289062 11.394531 9.199219 11.121094 C 9.070312 10.730469 8.679688 10.523438 8.320312 10.390625 C 8.207031 10.347656 8.136719 10.488281 8.179688 10.578125 C 8.621094 11.539062 7.839844 12.453125 7.40625 13.253906 C 7.277344 13.496094 7.160156 13.746094 7.09375 14.015625 C 7.0625 14.128906 7.183594 14.195312 7.269531 14.164062 " fill-opacity="1" fill-rule="nonzero"/><path fill="#fee673" d="M 32.328125 27.121094 C 32.320312 27.066406 32.257812 27.027344 32.207031 27.027344 C 31.914062 27.019531 31.898438 27.050781 31.878906 27.082031 C 31.855469 27.113281 31.828125 27.140625 31.550781 27.136719 C 31.054688 27.132812 30.480469 27.089844 30.074219 26.773438 C 31.46875 25.378906 32.40625 22.964844 32.183594 21.085938 C 32.0625 20.066406 31.496094 19.113281 30.992188 18.21875 C 30.492188 17.332031 28.402344 15.640625 27.351562 14.328125 C 26.960938 13.84375 26.894531 13.035156 26.863281 12.417969 C 26.859375 12.316406 26.75 12.359375 26.652344 12.421875 C 25.070312 13.414062 25.726562 16.433594 25.726562 16.433594 C 25.726562 16.433594 23.425781 16.601562 21.683594 14.039062 C 21.242188 13.390625 21.089844 12.546875 21.199219 11.753906 C 21.296875 11.054688 21.621094 10.417969 21.859375 9.761719 C 22.046875 9.25 22.160156 8.742188 22.203125 8.199219 C 22.246094 7.660156 22.234375 7.109375 22.121094 6.578125 C 22.027344 6.121094 21.835938 5.636719 21.441406 5.363281 C 21.367188 5.3125 21.292969 5.277344 21.210938 5.246094 C 21.34375 5.664062 21.398438 6.097656 21.332031 6.527344 C 21.214844 7.257812 20.691406 7.714844 20.078125 7.785156 C 19.957031 7.828125 19.824219 7.835938 19.679688 7.804688 C 19.449219 7.753906 19.230469 7.675781 19 7.613281 C 19.34375 7.933594 19.539062 8.359375 19.414062 8.878906 C 19.320312 9.28125 19.074219 9.625 18.757812 9.886719 C 18.457031 10.132812 18.160156 10.382812 17.890625 10.65625 C 16.738281 11.832031 15.382812 13.664062 16.492188 16.070312 C 16.683594 16.480469 16.980469 16.917969 16.875 17.378906 C 16.527344 17.082031 16.164062 16.84375 15.703125 16.765625 C 13.550781 16.390625 13.097656 16.308594 12.199219 15.304688 C 11.703125 14.75 11.628906 13.71875 11.21875 13.074219 C 11.15625 12.976562 11.027344 13.003906 10.988281 13.105469 C 10.464844 14.488281 9.625 15.71875 8.917969 17.007812 C 8.566406 17.652344 8.222656 18.324219 8.015625 19.03125 C 7.800781 19.773438 7.773438 20.550781 7.875 21.3125 C 7.976562 22.070312 8.195312 22.804688 8.441406 23.527344 C 8.210938 23.394531 7.953125 23.300781 7.691406 23.320312 C 7.597656 23.328125 7.539062 23.425781 7.582031 23.511719 C 8.261719 24.9375 8.605469 26.523438 9.417969 27.878906 C 8.9375 27.628906 8.390625 27.492188 7.867188 27.421875 C 7.132812 27.324219 6.304688 27.347656 5.648438 27.726562 C 5.582031 27.761719 5.558594 27.871094 5.621094 27.925781 C 6.015625 28.253906 6.464844 28.503906 6.847656 28.84375 C 7.265625 29.21875 7.5 29.726562 7.707031 30.234375 C 7.910156 30.730469 8.113281 31.21875 8.386719 31.675781 C 8.65625 32.128906 8.972656 32.554688 9.34375 32.929688 C 10.128906 33.726562 11.117188 34.210938 12.210938 34.402344 C 12.8125 34.507812 13.425781 34.53125 14.039062 34.503906 C 14.597656 34.480469 15.179688 34.441406 15.730469 34.324219 C 16.292969 34.203125 16.835938 34.007812 17.398438 33.871094 C 17.921875 33.742188 18.492188 33.640625 19.015625 33.820312 C 19.078125 33.839844 19.125 33.8125 19.152344 33.769531 C 21.59375 34.308594 24.125 34.847656 26.582031 34.105469 C 27.609375 33.796875 28.566406 33.28125 29.421875 32.636719 C 30.253906 32.003906 31.007812 31.25 31.566406 30.355469 C 32.167969 29.390625 32.5 28.265625 32.328125 27.121094 " fill-opacity="1" fill-rule="nonzero"/><path fill="#fec548" d="M 18.835938 29.441406 C 18.671875 29.390625 18.507812 29.34375 18.34375 29.292969 C 18.371094 29.238281 18.394531 29.183594 18.421875 29.128906 C 18.554688 29.238281 18.695312 29.34375 18.835938 29.441406 M 28.859375 27.410156 C 28.839844 27.367188 28.804688 27.347656 28.769531 27.34375 C 28.734375 27.335938 28.695312 27.34375 28.664062 27.386719 C 28.398438 27.710938 28.175781 28.070312 27.890625 28.382812 C 27.679688 28.613281 27.414062 28.84375 27.101562 28.886719 C 27.675781 28.1875 28.179688 27.453125 28.464844 26.582031 C 28.652344 26.011719 28.789062 25.417969 28.890625 24.824219 C 28.992188 24.25 29.050781 23.664062 29.03125 23.078125 C 29 22.09375 28.746094 21.132812 28.351562 20.230469 C 28.015625 19.46875 27.5625 18.730469 26.953125 18.160156 C 26.28125 17.523438 25.414062 17.152344 24.480469 17.226562 C 24.378906 17.234375 24.332031 17.328125 24.371094 17.417969 C 24.5625 17.84375 24.367188 18.402344 24.175781 18.789062 C 23.945312 19.253906 23.589844 19.730469 23.105469 19.949219 C 22.90625 20.039062 22.683594 20.0625 22.476562 19.992188 C 22.535156 19.351562 23.003906 18.875 23.257812 18.300781 C 23.398438 17.976562 23.460938 17.636719 23.410156 17.28125 C 23.347656 16.824219 23.167969 16.382812 22.925781 15.988281 C 22.796875 15.785156 22.648438 15.601562 22.484375 15.425781 C 22.324219 15.261719 22.167969 15.09375 22.058594 14.886719 C 22.042969 14.832031 22.019531 14.777344 21.996094 14.726562 C 21.972656 14.667969 21.890625 14.652344 21.839844 14.675781 C 21.78125 14.699219 21.746094 14.761719 21.765625 14.824219 C 21.78125 14.875 21.800781 14.925781 21.824219 14.976562 C 21.832031 15.011719 21.839844 15.0625 21.832031 15.089844 C 21.832031 15.101562 21.816406 15.109375 21.78125 15.117188 C 21.695312 15.128906 21.582031 15.097656 21.492188 15.070312 C 21.253906 14.992188 21.035156 14.867188 20.886719 14.660156 C 20.664062 14.351562 20.519531 13.988281 20.386719 13.636719 C 20.21875 13.207031 20.136719 12.761719 20.132812 12.300781 C 20.125 11.777344 20.1875 11.257812 20.203125 10.734375 C 20.207031 10.617188 20.066406 10.574219 19.988281 10.644531 C 19.402344 11.171875 18.933594 11.855469 18.78125 12.640625 C 18.628906 13.414062 18.796875 14.199219 19.175781 14.878906 C 19.378906 15.246094 19.589844 15.683594 19.539062 16.117188 C 19.515625 16.285156 19.441406 16.410156 19.269531 16.4375 C 19.027344 16.472656 18.761719 16.375 18.585938 16.210938 C 18.371094 16.015625 18.226562 15.753906 18.015625 15.554688 C 17.777344 15.324219 17.488281 15.242188 17.160156 15.296875 C 17.070312 15.3125 17.035156 15.453125 17.105469 15.507812 C 17.390625 15.734375 17.652344 16.035156 17.667969 16.417969 C 17.683594 16.738281 17.539062 17.042969 17.371094 17.3125 C 16.980469 17.925781 16.414062 18.390625 15.941406 18.9375 C 15.640625 19.285156 15.414062 19.6875 15.25 20.113281 C 14.902344 19.519531 14.484375 18.945312 13.925781 18.539062 C 13.257812 18.054688 12.425781 17.941406 11.621094 17.984375 C 11.152344 18.007812 10.6875 18.078125 10.21875 18.132812 C 10.171875 18.136719 10.121094 18.140625 10.074219 18.148438 C 10.046875 18.15625 10.011719 18.183594 10 18.207031 C 9.984375 18.234375 9.980469 18.261719 9.984375 18.289062 C 9.992188 18.347656 10.042969 18.40625 10.109375 18.398438 C 10.144531 18.394531 10.179688 18.390625 10.21875 18.386719 C 10.925781 18.359375 10.898438 19.304688 10.703125 19.796875 C 10.460938 19.75 10.265625 19.574219 10.0625 19.441406 C 9.800781 19.269531 9.527344 19.191406 9.21875 19.253906 C 9.132812 19.269531 9.109375 19.371094 9.144531 19.441406 C 9.445312 20.070312 9.472656 20.800781 9.445312 21.488281 C 9.414062 22.214844 9.304688 22.9375 9.257812 23.664062 C 9.171875 24.925781 9.375 26.257812 10.074219 27.332031 C 10.320312 27.707031 10.625 28.039062 10.980469 28.304688 C 10.699219 28.277344 10.417969 28.28125 10.140625 28.316406 C 9.644531 28.382812 9.113281 28.582031 8.871094 29.054688 C 8.824219 29.140625 8.882812 29.242188 8.980469 29.246094 C 9.3125 29.265625 9.574219 29.585938 9.753906 29.835938 C 10 30.179688 10.199219 30.5625 10.394531 30.9375 C 10.582031 31.296875 10.777344 31.636719 11.035156 31.949219 C 11.339844 32.320312 11.707031 32.644531 12.117188 32.894531 C 12.601562 33.195312 13.140625 33.386719 13.695312 33.519531 C 13.757812 33.535156 13.832031 33.5 13.851562 33.429688 C 13.875 33.328125 13.902344 33.226562 13.925781 33.125 C 14.742188 32.992188 15.472656 32.566406 16.113281 32.054688 C 16.800781 31.5 17.402344 30.824219 17.894531 30.085938 C 18.003906 29.914062 18.109375 29.742188 18.207031 29.5625 C 19.019531 30.472656 19.796875 31.417969 20.730469 32.199219 C 21.136719 32.539062 21.566406 32.808594 22.0625 32.992188 C 22.5625 33.175781 23.09375 33.277344 23.625 33.320312 C 24.144531 33.363281 24.671875 33.355469 25.191406 33.296875 C 25.714844 33.242188 26.222656 33.152344 26.695312 32.90625 C 27.621094 32.429688 28.382812 31.570312 28.75 30.589844 C 28.949219 30.0625 29.0625 29.5 29.09375 28.9375 C 29.125 28.421875 29.078125 27.886719 28.859375 27.410156 " fill-opacity="1" fill-rule="nonzero"/><path fill="#f12726" d="M 24.683594 30.828125 C 25.496094 30.144531 26.265625 29.378906 26.910156 28.464844 C 27.574219 27.523438 28.125 26.460938 28.578125 25.335938 C 28.804688 24.773438 29.015625 24.191406 29.191406 23.597656 C 29.320312 23.152344 29.394531 22.679688 29.375 22.214844 C 29.34375 21.363281 29.011719 20.589844 28.460938 20.078125 C 27.878906 19.542969 27.117188 19.3125 26.351562 19.378906 C 26.328125 19.378906 26.304688 19.382812 26.28125 19.386719 C 25.277344 19.277344 24.101562 19.21875 23.203125 19.941406 C 22.238281 20.722656 21.921875 22.078125 21.597656 23.273438 C 21.296875 24.398438 20.957031 25.5 20.4375 26.472656 C 19.863281 27.546875 19.046875 28.410156 18.179688 29.148438 C 17.265625 29.925781 16.257812 30.546875 15.1875 31.019531 C 14.414062 31.359375 13.589844 31.644531 12.714844 31.546875 C 11.984375 31.464844 11.304688 31.113281 10.683594 30.660156 C 10.292969 30.371094 9.9375 30.035156 9.554688 29.722656 C 9.394531 29.589844 9.222656 29.457031 9.039062 29.363281 C 8.925781 29.308594 8.792969 29.257812 8.679688 29.296875 C 8.398438 29.394531 8.515625 29.875 8.570312 30.109375 C 8.636719 30.394531 8.734375 30.675781 8.824219 30.957031 C 8.910156 31.222656 9 31.488281 9.097656 31.75 C 9.296875 32.265625 9.558594 32.757812 9.9375 33.160156 C 10.292969 33.535156 10.730469 33.832031 11.164062 34.082031 C 11.941406 34.519531 12.789062 34.773438 13.640625 34.847656 C 14.558594 34.933594 15.464844 34.816406 16.351562 34.65625 C 18.34375 34.296875 20.289062 33.617188 22.082031 32.613281 C 22.988281 32.105469 23.863281 31.511719 24.683594 30.828125 " fill-opacity="1" fill-rule="nonzero"/><path fill="#d7131a" d="M 24.683594 30.828125 C 25.496094 30.144531 26.265625 29.378906 26.910156 28.464844 C 27.574219 27.523438 28.125 26.460938 28.578125 25.335938 C 28.804688 24.773438 29.015625 24.191406 29.191406 23.597656 C 29.320312 23.152344 29.394531 22.679688 29.375 22.214844 C 29.34375 21.363281 29.011719 20.589844 28.460938 20.078125 C 28.328125 19.957031 28.183594 19.851562 28.035156 19.761719 C 28.210938 20.144531 28.316406 20.570312 28.347656 21.011719 C 28.378906 21.480469 28.320312 21.957031 28.207031 22.40625 C 28.054688 23 27.867188 23.578125 27.664062 24.140625 C 27.257812 25.261719 26.75 26.316406 26.128906 27.246094 C 25.527344 28.144531 24.800781 28.894531 24.023438 29.554688 C 23.242188 30.222656 22.402344 30.792969 21.53125 31.273438 C 18.339844 33.035156 11.59375 36.257812 8.714844 29.945312 C 8.640625 29.785156 8.589844 29.617188 8.527344 29.449219 C 8.457031 29.640625 8.53125 29.9375 8.570312 30.109375 C 8.636719 30.394531 8.734375 30.675781 8.824219 30.957031 C 8.910156 31.222656 9 31.488281 9.097656 31.75 C 9.296875 32.265625 9.558594 32.757812 9.9375 33.160156 C 10.292969 33.535156 10.730469 33.832031 11.164062 34.082031 C 11.941406 34.519531 12.789062 34.773438 13.640625 34.847656 C 14.558594 34.933594 15.464844 34.816406 16.351562 34.65625 C 18.34375 34.296875 20.289062 33.617188 22.082031 32.613281 C 22.988281 32.105469 23.863281 31.511719 24.683594 30.828125 " fill-opacity="1" fill-rule="nonzero"/><path fill="#f05f57" d="M 21.570312 28.988281 C 22.253906 28.128906 22.855469 27.363281 23.5 26.234375 C 23.804688 25.707031 24.34375 24.390625 24.808594 23.683594 C 25.261719 22.992188 25.667969 23.054688 25.730469 22.445312 C 25.78125 21.992188 25.410156 21.558594 25.0625 21.398438 C 25.070312 21.40625 25.074219 21.417969 25.066406 21.410156 C 24.632812 21.125 23.800781 20.78125 23.4375 21.082031 C 23.109375 21.359375 22.886719 21.785156 22.699219 22.191406 C 22.191406 23.273438 22.039062 24.859375 21.5625 25.898438 C 21.324219 26.421875 21.082031 26.9375 20.78125 27.410156 C 20.5 27.855469 20.179688 28.269531 19.839844 28.652344 C 19.496094 29.035156 19.132812 29.390625 18.753906 29.726562 C 18.566406 29.894531 18.375 30.054688 18.179688 30.214844 C 17.980469 30.375 17.785156 30.539062 17.566406 30.667969 C 17.363281 30.789062 17.148438 30.886719 16.945312 31.007812 C 16.8125 31.082031 16.664062 31.171875 16.566406 31.296875 C 16.492188 31.394531 16.476562 31.523438 16.578125 31.609375 C 16.714844 31.730469 16.941406 31.742188 17.109375 31.753906 C 17.910156 31.804688 18.679688 31.390625 19.355469 30.96875 C 20.195312 30.449219 20.929688 29.792969 21.570312 28.988281 " fill-opacity="1" fill-rule="nonzero"/><path fill="#5a8f46" d="M 29.199219 20.792969 C 29.164062 20.570312 29.019531 20.410156 28.875 20.285156 C 28.710938 20.144531 28.527344 20.035156 28.347656 19.914062 C 28.175781 19.796875 28.003906 19.65625 27.847656 19.507812 C 27.699219 19.367188 27.570312 19.195312 27.539062 18.957031 C 27.503906 18.667969 27.582031 18.355469 27.648438 18.070312 C 27.722656 17.757812 27.820312 17.449219 27.933594 17.148438 C 28.160156 16.539062 28.453125 15.949219 28.816406 15.425781 C 29.019531 15.132812 29.253906 14.855469 29.507812 14.628906 C 29.574219 14.570312 29.640625 14.515625 29.710938 14.46875 C 29.773438 14.5625 29.820312 14.671875 29.886719 14.757812 C 29.964844 14.855469 30.070312 14.910156 30.179688 14.933594 C 30.390625 14.976562 30.628906 14.9375 30.84375 14.890625 C 30.933594 14.867188 31.027344 14.839844 31.101562 14.757812 C 31.183594 14.671875 31.226562 14.550781 31.265625 14.433594 C 31.316406 14.265625 31.351562 14.089844 31.378906 13.917969 C 31.402344 13.761719 31.433594 13.59375 31.429688 13.4375 C 31.421875 12.933594 31.050781 12.796875 30.71875 12.792969 C 30.308594 12.789062 29.871094 12.925781 29.480469 13.121094 C 28.46875 13.621094 27.628906 14.636719 27.1875 15.878906 C 26.996094 16.425781 26.914062 17 26.757812 17.550781 C 26.625 18.03125 26.40625 18.480469 26.015625 18.691406 C 25.335938 19.054688 24.5625 18.738281 23.878906 19.101562 C 23.792969 19.148438 23.710938 19.203125 23.636719 19.265625 C 23.578125 19.3125 23.585938 19.421875 23.644531 19.457031 C 23.9375 19.625 24.261719 19.714844 24.554688 19.867188 C 24.828125 20.007812 25.144531 20.207031 25.199219 20.589844 C 25.207031 20.648438 25.269531 20.675781 25.3125 20.65625 C 25.410156 20.609375 25.488281 20.535156 25.574219 20.464844 C 25.65625 20.398438 25.734375 20.363281 25.832031 20.355469 C 26 20.339844 26.175781 20.367188 26.335938 20.421875 C 26.679688 20.53125 27.050781 20.757812 27.179688 21.171875 C 27.195312 21.230469 27.261719 21.273438 27.308594 21.222656 C 27.429688 21.097656 27.550781 20.960938 27.691406 20.867188 C 27.839844 20.769531 27.996094 20.75 28.152344 20.742188 C 28.3125 20.730469 28.472656 20.734375 28.632812 20.753906 C 28.777344 20.777344 28.933594 20.8125 29.054688 20.914062 C 29.121094 20.972656 29.214844 20.898438 29.199219 20.792969 " fill-opacity="1" fill-rule="nonzero"/><path fill="#3f6243" d="M 31.183594 13.285156 C 31.1875 13.441406 31.160156 13.609375 31.136719 13.765625 C 31.109375 13.941406 31.074219 14.117188 31.023438 14.28125 C 30.984375 14.402344 30.941406 14.523438 30.863281 14.609375 C 30.785156 14.691406 30.691406 14.722656 30.601562 14.742188 C 30.382812 14.789062 30.148438 14.828125 29.9375 14.785156 C 29.925781 14.785156 29.917969 14.78125 29.90625 14.777344 C 29.984375 14.863281 30.078125 14.914062 30.179688 14.933594 C 30.390625 14.976562 30.628906 14.9375 30.84375 14.890625 C 30.933594 14.867188 31.027344 14.839844 31.101562 14.757812 C 31.183594 14.671875 31.226562 14.550781 31.265625 14.433594 C 31.316406 14.265625 31.351562 14.089844 31.378906 13.917969 C 31.402344 13.761719 31.433594 13.59375 31.429688 13.4375 C 31.421875 13.09375 31.246094 12.917969 31.027344 12.84375 C 31.121094 12.945312 31.179688 13.085938 31.183594 13.285156 " fill-opacity="1" fill-rule="nonzero"/><path fill="#3f6243" d="M 29.199219 20.792969 C 29.164062 20.570312 29.019531 20.410156 28.875 20.285156 C 28.710938 20.144531 28.527344 20.035156 28.347656 19.914062 C 28.175781 19.796875 28.003906 19.65625 27.847656 19.507812 C 27.699219 19.367188 27.570312 19.195312 27.539062 18.957031 C 27.503906 18.667969 27.582031 18.355469 27.648438 18.070312 C 27.722656 17.757812 27.820312 17.449219 27.933594 17.148438 C 28.160156 16.539062 28.453125 15.949219 28.816406 15.425781 C 29.019531 15.132812 29.253906 14.855469 29.507812 14.628906 C 29.539062 14.601562 29.679688 14.492188 29.710938 14.46875 C 29.664062 14.394531 29.6875 14.191406 29.464844 14.316406 C 29.394531 14.367188 29.328125 14.421875 29.261719 14.480469 C 29.007812 14.707031 28.773438 14.984375 28.566406 15.28125 C 28.207031 15.800781 27.914062 16.398438 27.6875 17.007812 C 27.574219 17.3125 27.480469 17.617188 27.40625 17.933594 C 27.335938 18.21875 27.261719 18.535156 27.296875 18.820312 C 27.328125 19.0625 27.457031 19.234375 27.605469 19.375 C 27.765625 19.523438 27.9375 19.664062 28.113281 19.785156 C 28.292969 19.902344 28.476562 20.015625 28.640625 20.15625 C 28.785156 20.28125 28.929688 20.441406 28.964844 20.667969 C 28.984375 20.773438 28.933594 20.8125 29.054688 20.914062 C 29.121094 20.96875 29.214844 20.898438 29.199219 20.792969 " fill-opacity="1" fill-rule="nonzero"/><path fill="#f7aba8" d="M 23.789062 21.96875 C 23.28125 22.5625 23.046875 23.363281 22.832031 24.117188 C 22.78125 24.292969 22.914062 24.484375 23.054688 24.515625 C 23.226562 24.550781 23.355469 24.417969 23.40625 24.238281 C 23.59375 23.601562 23.800781 22.929688 24.230469 22.429688 C 24.347656 22.292969 24.328125 22.046875 24.214844 21.925781 C 24.085938 21.792969 23.90625 21.828125 23.789062 21.96875 " fill-opacity="1" fill-rule="nonzero"/><path fill="#f7aba8" d="M 22.410156 25.3125 C 22.292969 25.53125 22.210938 25.773438 22.167969 26.019531 C 22.140625 26.195312 22.238281 26.371094 22.394531 26.402344 C 22.546875 26.433594 22.710938 26.3125 22.738281 26.136719 C 22.773438 25.929688 22.828125 25.78125 22.933594 25.59375 C 23.019531 25.4375 22.9375 25.21875 22.804688 25.148438 C 22.652344 25.066406 22.5 25.15625 22.410156 25.3125 " fill-opacity="1" fill-rule="nonzero"/><path fill="#eb3832" d="M 27.753906 25.15625 C 27.429688 26.085938 27.210938 26.523438 26.722656 27.207031 C 26.488281 27.539062 26.886719 27.941406 27.121094 27.609375 C 27.597656 26.933594 27.988281 26.234375 28.300781 25.273438 C 28.433594 24.863281 27.835938 24.730469 27.753906 25.15625 " fill-opacity="1" fill-rule="nonzero"/><path fill="#eb3832" d="M 18.019531 33.363281 C 17.5625 33.503906 17.085938 33.535156 16.621094 33.644531 C 16.476562 33.679688 16.359375 33.789062 16.378906 33.957031 C 16.394531 34.09375 16.539062 34.242188 16.6875 34.207031 C 17.191406 34.089844 17.714844 34.046875 18.214844 33.894531 C 18.355469 33.851562 18.425781 33.664062 18.375 33.527344 C 18.320312 33.375 18.164062 33.320312 18.019531 33.363281 " fill-opacity="1" fill-rule="nonzero"/><path fill="#eb3832" d="M 15.492188 34.308594 C 15.714844 34.59375 16.15625 34.261719 15.933594 33.972656 C 15.707031 33.683594 15.261719 34.019531 15.492188 34.308594 " fill-opacity="1" fill-rule="nonzero"/><path fill="#a1bf6f" d="M 27.9375 15.386719 C 27.84375 15.386719 27.761719 15.296875 27.804688 15.15625 C 28.097656 14.175781 28.972656 13.640625 29.691406 13.320312 C 29.710938 13.3125 29.730469 13.308594 29.746094 13.308594 C 29.902344 13.308594 29.941406 13.636719 29.761719 13.714844 C 29.433594 13.863281 29.113281 14.042969 28.816406 14.285156 C 28.527344 14.515625 28.230469 14.824219 28.109375 15.238281 C 28.078125 15.339844 28.003906 15.386719 27.9375 15.386719 " fill-opacity="1" fill-rule="nonzero"/><path fill="#a1bf6f" d="M 27.402344 16.503906 C 27.328125 16.503906 27.257812 16.445312 27.261719 16.324219 C 27.265625 16.089844 27.371094 15.902344 27.480469 15.714844 C 27.515625 15.648438 27.570312 15.601562 27.628906 15.601562 C 27.648438 15.601562 27.671875 15.609375 27.695312 15.621094 C 27.761719 15.667969 27.800781 15.800781 27.75 15.890625 C 27.683594 16.007812 27.578125 16.15625 27.574219 16.300781 C 27.570312 16.433594 27.484375 16.503906 27.402344 16.503906 " fill-opacity="1" fill-rule="nonzero"/><path fill="#a1bf6f" d="M 25.351562 19.539062 C 25.171875 19.539062 25.171875 19.183594 25.363281 19.164062 C 25.597656 19.136719 25.847656 19.15625 26.050781 18.96875 C 26.078125 18.941406 26.109375 18.929688 26.136719 18.929688 C 26.257812 18.929688 26.335938 19.160156 26.203125 19.28125 C 25.957031 19.507812 25.65625 19.503906 25.367188 19.535156 C 25.363281 19.539062 25.355469 19.539062 25.351562 19.539062 " fill-opacity="1" fill-rule="nonzero"/><path fill="#db2323" d="M 18.53125 32.765625 C 18.339844 32.542969 18.054688 32.421875 17.785156 32.320312 C 17.503906 32.210938 17.210938 32.125 16.945312 31.980469 C 16.601562 31.792969 16.265625 31.589844 15.898438 31.449219 C 15.535156 31.3125 15.144531 31.148438 14.753906 31.109375 C 14.566406 31.089844 14.363281 31.113281 14.199219 31.214844 C 14.066406 31.296875 13.949219 31.449219 13.78125 31.488281 C 13.75 31.496094 14.78125 31.953125 15.21875 33.277344 C 15.28125 33.46875 15.289062 33.59375 15.289062 33.59375 C 15.460938 33.585938 16.992188 33.347656 17.625 33.078125 C 17.902344 32.960938 18.292969 33.191406 18.53125 32.976562 C 18.59375 32.917969 18.582031 32.824219 18.53125 32.765625 " fill-opacity="1" fill-rule="nonzero"/><path fill="#eb3832" d="M 13.273438 30.828125 C 12.460938 30.144531 11.691406 29.378906 11.046875 28.464844 C 10.382812 27.523438 9.832031 26.460938 9.378906 25.335938 C 9.152344 24.773438 8.941406 24.191406 8.769531 23.597656 C 8.636719 23.152344 8.566406 22.679688 8.582031 22.214844 C 8.613281 21.363281 8.945312 20.589844 9.5 20.078125 C 10.078125 19.542969 10.839844 19.3125 11.605469 19.378906 C 11.628906 19.378906 11.652344 19.382812 11.675781 19.386719 C 12.679688 19.277344 13.855469 19.21875 14.753906 19.941406 C 15.71875 20.722656 16.035156 22.078125 16.359375 23.273438 C 16.664062 24.398438 17 25.5 17.519531 26.472656 C 18.09375 27.546875 18.910156 28.410156 19.78125 29.148438 C 20.691406 29.925781 21.703125 30.546875 22.769531 31.019531 C 23.546875 31.359375 24.367188 31.644531 25.242188 31.546875 C 25.972656 31.464844 26.652344 31.113281 27.273438 30.660156 C 27.664062 30.371094 28.019531 30.035156 28.402344 29.722656 C 28.566406 29.589844 28.734375 29.457031 28.921875 29.363281 C 29.03125 29.308594 29.164062 29.257812 29.277344 29.296875 C 29.558594 29.394531 29.441406 29.875 29.386719 30.109375 C 29.320312 30.394531 29.222656 30.675781 29.132812 30.957031 C 29.046875 31.222656 28.960938 31.488281 28.859375 31.75 C 28.664062 32.265625 28.402344 32.757812 28.023438 33.160156 C 27.667969 33.535156 27.226562 33.832031 26.792969 34.082031 C 26.015625 34.519531 25.171875 34.773438 24.320312 34.847656 C 23.402344 34.933594 22.496094 34.816406 21.605469 34.65625 C 19.617188 34.296875 17.671875 33.617188 15.875 32.613281 C 14.96875 32.105469 14.097656 31.511719 13.273438 30.828125 " fill-opacity="1" fill-rule="nonzero"/><path fill="#d7131a" d="M 13.273438 30.828125 C 12.460938 30.144531 11.691406 29.378906 11.046875 28.464844 C 10.382812 27.523438 9.832031 26.460938 9.378906 25.335938 C 9.152344 24.773438 8.941406 24.191406 8.769531 23.597656 C 8.636719 23.152344 8.566406 22.679688 8.582031 22.214844 C 8.613281 21.363281 8.945312 20.589844 9.5 20.078125 C 9.632812 19.957031 9.773438 19.851562 9.921875 19.761719 C 9.75 20.144531 9.640625 20.570312 9.613281 21.011719 C 9.582031 21.480469 9.636719 21.957031 9.75 22.40625 C 9.902344 23 10.089844 23.578125 10.292969 24.140625 C 10.703125 25.261719 11.207031 26.316406 11.828125 27.246094 C 12.429688 28.144531 13.160156 28.894531 13.933594 29.554688 C 14.71875 30.222656 15.554688 30.792969 16.429688 31.273438 C 19.621094 33.035156 26.363281 36.257812 29.242188 29.945312 C 29.316406 29.785156 29.371094 29.617188 29.429688 29.449219 C 29.5 29.640625 29.429688 29.9375 29.386719 30.109375 C 29.320312 30.394531 29.222656 30.675781 29.132812 30.957031 C 29.046875 31.222656 28.960938 31.488281 28.859375 31.75 C 28.664062 32.265625 28.402344 32.757812 28.023438 33.160156 C 27.667969 33.535156 27.226562 33.832031 26.792969 34.082031 C 26.015625 34.519531 25.171875 34.773438 24.320312 34.847656 C 23.402344 34.933594 22.496094 34.816406 21.605469 34.65625 C 19.617188 34.296875 17.671875 33.617188 15.875 32.613281 C 14.96875 32.105469 14.097656 31.511719 13.273438 30.828125 " fill-opacity="1" fill-rule="nonzero"/><path fill="#f7aba8" d="M 12.894531 21.398438 C 12.898438 21.394531 12.898438 21.394531 12.894531 21.398438 " fill-opacity="1" fill-rule="nonzero"/><path fill="#f05f57" d="M 16.390625 28.988281 C 15.703125 28.128906 15.101562 27.363281 14.457031 26.234375 C 14.15625 25.707031 13.613281 24.390625 13.148438 23.683594 C 12.695312 22.992188 12.292969 23.054688 12.226562 22.445312 C 12.179688 21.992188 12.546875 21.558594 12.894531 21.398438 C 12.890625 21.40625 12.882812 21.417969 12.894531 21.410156 C 13.324219 21.125 14.160156 20.78125 14.519531 21.082031 C 14.847656 21.359375 15.070312 21.785156 15.261719 22.191406 C 15.765625 23.273438 15.921875 24.859375 16.394531 25.898438 C 16.632812 26.421875 16.875 26.9375 17.175781 27.410156 C 17.460938 27.855469 17.777344 28.269531 18.117188 28.652344 C 18.460938 29.035156 18.828125 29.390625 19.203125 29.726562 C 19.390625 29.894531 19.585938 30.054688 19.777344 30.214844 C 19.976562 30.375 20.175781 30.539062 20.394531 30.667969 C 20.597656 30.789062 20.808594 30.886719 21.015625 31.007812 C 21.148438 31.082031 21.292969 31.171875 21.390625 31.296875 C 21.464844 31.394531 21.480469 31.523438 21.378906 31.609375 C 21.242188 31.730469 21.015625 31.742188 20.847656 31.753906 C 20.050781 31.804688 19.277344 31.390625 18.601562 30.96875 C 17.765625 30.449219 17.027344 29.792969 16.390625 28.988281 " fill-opacity="1" fill-rule="nonzero"/><path fill="#5a8f46" d="M 8.757812 20.792969 C 8.792969 20.570312 8.9375 20.410156 9.082031 20.285156 C 9.246094 20.144531 9.429688 20.035156 9.609375 19.914062 C 9.785156 19.796875 9.953125 19.65625 10.113281 19.507812 C 10.257812 19.367188 10.386719 19.195312 10.417969 18.957031 C 10.457031 18.667969 10.378906 18.355469 10.308594 18.070312 C 10.234375 17.757812 10.136719 17.449219 10.023438 17.148438 C 9.796875 16.539062 9.507812 15.949219 9.144531 15.425781 C 8.9375 15.132812 8.707031 14.855469 8.449219 14.628906 C 8.382812 14.570312 8.316406 14.515625 8.246094 14.46875 C 8.1875 14.5625 8.136719 14.671875 8.070312 14.757812 C 7.992188 14.855469 7.886719 14.910156 7.777344 14.933594 C 7.566406 14.976562 7.332031 14.9375 7.117188 14.890625 C 7.023438 14.867188 6.933594 14.839844 6.855469 14.757812 C 6.773438 14.671875 6.730469 14.550781 6.695312 14.433594 C 6.644531 14.265625 6.605469 14.089844 6.578125 13.917969 C 6.554688 13.761719 6.527344 13.59375 6.527344 13.4375 C 6.539062 12.933594 6.90625 12.796875 7.242188 12.792969 C 7.652344 12.789062 8.085938 12.925781 8.480469 13.121094 C 9.488281 13.621094 10.328125 14.636719 10.769531 15.878906 C 10.964844 16.425781 11.046875 17 11.199219 17.550781 C 11.335938 18.03125 11.550781 18.480469 11.941406 18.691406 C 12.625 19.054688 13.394531 18.738281 14.078125 19.101562 C 14.164062 19.148438 14.246094 19.203125 14.320312 19.265625 C 14.382812 19.3125 14.371094 19.421875 14.3125 19.457031 C 14.019531 19.625 13.699219 19.714844 13.402344 19.867188 C 13.128906 20.007812 12.8125 20.207031 12.757812 20.589844 C 12.75 20.648438 12.6875 20.675781 12.644531 20.65625 C 12.550781 20.609375 12.46875 20.535156 12.382812 20.464844 C 12.300781 20.398438 12.222656 20.363281 12.128906 20.355469 C 11.957031 20.339844 11.78125 20.367188 11.621094 20.421875 C 11.28125 20.53125 10.90625 20.757812 10.777344 21.171875 C 10.761719 21.230469 10.699219 21.273438 10.648438 21.222656 C 10.527344 21.097656 10.40625 20.960938 10.265625 20.867188 C 10.121094 20.769531 9.960938 20.75 9.804688 20.742188 C 9.644531 20.730469 9.484375 20.734375 9.328125 20.753906 C 9.179688 20.777344 9.023438 20.8125 8.90625 20.914062 C 8.839844 20.972656 8.742188 20.898438 8.757812 20.792969 " fill-opacity="1" fill-rule="nonzero"/><path fill="#3f6243" d="M 6.773438 13.285156 C 6.769531 13.441406 6.796875 13.609375 6.820312 13.765625 C 6.851562 13.941406 6.886719 14.117188 6.9375 14.28125 C 6.972656 14.402344 7.015625 14.523438 7.097656 14.609375 C 7.171875 14.691406 7.265625 14.722656 7.359375 14.742188 C 7.574219 14.789062 7.808594 14.828125 8.019531 14.785156 C 8.03125 14.785156 8.042969 14.78125 8.050781 14.777344 C 7.976562 14.863281 7.878906 14.914062 7.777344 14.933594 C 7.566406 14.976562 7.332031 14.9375 7.117188 14.890625 C 7.023438 14.867188 6.933594 14.839844 6.855469 14.757812 C 6.773438 14.671875 6.730469 14.550781 6.695312 14.433594 C 6.644531 14.265625 6.605469 14.089844 6.578125 13.917969 C 6.554688 13.761719 6.527344 13.59375 6.527344 13.4375 C 6.535156 13.09375 6.710938 12.917969 6.929688 12.84375 C 6.835938 12.945312 6.777344 13.085938 6.773438 13.285156 " fill-opacity="1" fill-rule="nonzero"/><path fill="#3f6243" d="M 8.757812 20.792969 C 8.792969 20.570312 8.9375 20.410156 9.082031 20.285156 C 9.246094 20.144531 9.429688 20.035156 9.609375 19.914062 C 9.785156 19.796875 9.953125 19.65625 10.113281 19.507812 C 10.257812 19.367188 10.386719 19.195312 10.417969 18.957031 C 10.457031 18.667969 10.378906 18.355469 10.308594 18.070312 C 10.234375 17.757812 10.136719 17.449219 10.023438 17.148438 C 9.796875 16.539062 9.507812 15.949219 9.144531 15.425781 C 8.9375 15.132812 8.707031 14.855469 8.449219 14.628906 C 8.417969 14.601562 8.277344 14.492188 8.246094 14.46875 C 8.296875 14.394531 8.269531 14.191406 8.492188 14.316406 C 8.5625 14.367188 8.628906 14.421875 8.695312 14.480469 C 8.953125 14.707031 9.183594 14.984375 9.390625 15.28125 C 9.753906 15.800781 10.042969 16.398438 10.269531 17.007812 C 10.382812 17.3125 10.476562 17.617188 10.554688 17.933594 C 10.621094 18.21875 10.699219 18.535156 10.660156 18.820312 C 10.628906 19.0625 10.5 19.234375 10.351562 19.375 C 10.191406 19.523438 10.023438 19.664062 9.847656 19.785156 C 9.667969 19.902344 9.484375 20.015625 9.316406 20.15625 C 9.171875 20.28125 9.027344 20.441406 8.992188 20.667969 C 8.976562 20.773438 9.023438 20.8125 8.90625 20.914062 C 8.839844 20.96875 8.742188 20.898438 8.757812 20.792969 " fill-opacity="1" fill-rule="nonzero"/><path fill="#f7aba8" d="M 14.171875 21.96875 C 14.675781 22.5625 14.910156 23.363281 15.128906 24.117188 C 15.179688 24.292969 15.046875 24.484375 14.902344 24.515625 C 14.730469 24.550781 14.601562 24.417969 14.550781 24.238281 C 14.363281 23.601562 14.15625 22.929688 13.726562 22.429688 C 13.609375 22.292969 13.632812 22.046875 13.746094 21.925781 C 13.871094 21.792969 14.050781 21.828125 14.171875 21.96875 " fill-opacity="1" fill-rule="nonzero"/><path fill="#f7aba8" d="M 15.546875 25.3125 C 15.667969 25.53125 15.746094 25.773438 15.789062 26.019531 C 15.816406 26.195312 15.71875 26.371094 15.5625 26.402344 C 15.414062 26.433594 15.25 26.3125 15.21875 26.136719 C 15.183594 25.929688 15.128906 25.78125 15.023438 25.59375 C 14.9375 25.4375 15.019531 25.21875 15.152344 25.148438 C 15.304688 25.066406 15.460938 25.15625 15.546875 25.3125 " fill-opacity="1" fill-rule="nonzero"/><path fill="#eb3832" d="M 10.207031 25.15625 C 10.527344 26.085938 10.746094 26.523438 11.234375 27.207031 C 11.46875 27.539062 11.070312 27.941406 10.835938 27.609375 C 10.363281 26.933594 9.96875 26.234375 9.65625 25.273438 C 9.523438 24.863281 10.121094 24.730469 10.207031 25.15625 " fill-opacity="1" fill-rule="nonzero"/><path fill="#eb3832" d="M 19.9375 33.363281 C 20.394531 33.503906 20.875 33.535156 21.335938 33.644531 C 21.484375 33.679688 21.601562 33.789062 21.582031 33.957031 C 21.5625 34.09375 21.417969 34.242188 21.273438 34.207031 C 20.765625 34.089844 20.246094 34.046875 19.746094 33.894531 C 19.601562 33.851562 19.535156 33.664062 19.582031 33.527344 C 19.640625 33.375 19.792969 33.320312 19.9375 33.363281 " fill-opacity="1" fill-rule="nonzero"/><path fill="#eb3832" d="M 22.46875 34.308594 C 22.242188 34.59375 21.800781 34.261719 22.027344 33.972656 C 22.25 33.683594 22.695312 34.019531 22.46875 34.308594 " fill-opacity="1" fill-rule="nonzero"/><path fill="#a1bf6f" d="M 10.019531 15.386719 C 9.953125 15.386719 9.882812 15.339844 9.851562 15.238281 C 9.726562 14.824219 9.429688 14.515625 9.144531 14.285156 C 8.847656 14.042969 8.523438 13.863281 8.195312 13.714844 C 8.019531 13.636719 8.054688 13.308594 8.210938 13.308594 C 8.226562 13.308594 8.246094 13.3125 8.265625 13.320312 C 8.988281 13.640625 9.859375 14.175781 10.152344 15.15625 C 10.195312 15.296875 10.113281 15.386719 10.019531 15.386719 " fill-opacity="1" fill-rule="nonzero"/><path fill="#a1bf6f" d="M 10.554688 16.503906 C 10.472656 16.503906 10.386719 16.433594 10.382812 16.300781 C 10.378906 16.15625 10.277344 16.007812 10.207031 15.890625 C 10.15625 15.800781 10.199219 15.667969 10.265625 15.621094 C 10.285156 15.609375 10.308594 15.601562 10.332031 15.601562 C 10.386719 15.601562 10.441406 15.648438 10.480469 15.714844 C 10.585938 15.902344 10.691406 16.089844 10.695312 16.324219 C 10.699219 16.445312 10.628906 16.503906 10.554688 16.503906 " fill-opacity="1" fill-rule="nonzero"/><path fill="#a1bf6f" d="M 12.609375 19.539062 C 12.601562 19.539062 12.597656 19.539062 12.589844 19.535156 C 12.300781 19.503906 12.003906 19.507812 11.753906 19.28125 C 11.621094 19.160156 11.699219 18.929688 11.820312 18.929688 C 11.847656 18.929688 11.878906 18.941406 11.910156 18.96875 C 12.109375 19.15625 12.359375 19.136719 12.59375 19.164062 C 12.785156 19.183594 12.789062 19.539062 12.609375 19.539062 " fill-opacity="1" fill-rule="nonzero"/></svg>