<svg xmlns="http://www.w3.org/2000/svg" xmlns:xlink="http://www.w3.org/1999/xlink" width="50" zoomAndPan="magnify" viewBox="0 0 37.5 37.499999" height="50" preserveAspectRatio="xMidYMid meet" version="1.0"><defs><clipPath id="68628786c3"><path d="M 1 0 L 35.785156 0 L 35.785156 34.785156 L 1 34.785156 Z M 1 0 " clip-rule="nonzero"/></clipPath></defs><path fill="#4ea638" d="M 4.570312 15.917969 C 4.710938 15.949219 4.851562 15.964844 4.988281 15.964844 C 5.316406 15.964844 5.632812 15.871094 5.929688 15.683594 C 6.347656 15.417969 6.613281 15.039062 6.722656 14.554688 C 6.816406 14.148438 6.765625 13.746094 6.574219 13.355469 C 6.527344 13.277344 6.457031 13.230469 6.375 13.210938 L 5.398438 12.988281 L 5.273438 12.988281 C 5.230469 12.996094 5.195312 13.011719 5.160156 13.03125 C 5.125 13.050781 5.097656 13.078125 5.070312 13.113281 C 5.046875 13.148438 5.027344 13.1875 5.019531 13.230469 L 4.839844 14.027344 C 4.828125 14.070312 4.828125 14.113281 4.835938 14.15625 C 4.84375 14.195312 4.855469 14.234375 4.878906 14.265625 C 4.898438 14.300781 4.929688 14.332031 4.964844 14.355469 C 5 14.378906 5.039062 14.398438 5.078125 14.40625 L 5.15625 14.414062 C 5.214844 14.414062 5.269531 14.398438 5.320312 14.367188 C 5.394531 14.320312 5.441406 14.253906 5.460938 14.164062 L 5.570312 13.679688 L 6.074219 13.796875 C 6.140625 13.992188 6.148438 14.199219 6.101562 14.414062 C 6.03125 14.734375 5.863281 14.972656 5.585938 15.144531 C 5.398438 15.265625 5.195312 15.324219 4.984375 15.324219 C 4.894531 15.324219 4.804688 15.316406 4.710938 15.292969 C 4.394531 15.222656 4.15625 15.054688 3.984375 14.785156 C 3.808594 14.507812 3.761719 14.21875 3.832031 13.902344 C 3.863281 13.773438 3.910156 13.648438 3.976562 13.542969 C 4.042969 13.433594 4.128906 13.339844 4.222656 13.265625 C 4.292969 13.214844 4.339844 13.152344 4.355469 13.070312 C 4.367188 13.027344 4.367188 12.988281 4.359375 12.945312 C 4.351562 12.902344 4.339844 12.863281 4.316406 12.828125 C 4.292969 12.792969 4.265625 12.761719 4.234375 12.742188 C 4.199219 12.71875 4.160156 12.699219 4.117188 12.6875 L 4.035156 12.679688 C 3.976562 12.679688 3.925781 12.695312 3.875 12.730469 C 3.527344 13 3.304688 13.351562 3.210938 13.765625 C 3.101562 14.246094 3.179688 14.703125 3.445312 15.121094 C 3.710938 15.539062 4.085938 15.808594 4.570312 15.917969 " fill-opacity="1" fill-rule="nonzero"/><path fill="#4ea638" d="M 4.480469 10.96875 L 7.058594 12.429688 C 7.09375 12.453125 7.136719 12.464844 7.179688 12.472656 L 7.214844 12.472656 L 7.300781 12.460938 C 7.339844 12.453125 7.375 12.433594 7.410156 12.40625 C 7.441406 12.382812 7.46875 12.351562 7.492188 12.308594 L 8.382812 10.734375 C 8.425781 10.660156 8.4375 10.574219 8.414062 10.492188 C 8.390625 10.410156 8.339844 10.34375 8.265625 10.300781 C 8.214844 10.273438 8.164062 10.257812 8.109375 10.257812 L 8.023438 10.269531 C 7.9375 10.292969 7.871094 10.34375 7.828125 10.421875 L 7.09375 11.71875 L 4.792969 10.417969 C 4.742188 10.386719 4.691406 10.375 4.636719 10.375 L 4.550781 10.386719 C 4.464844 10.410156 4.402344 10.460938 4.359375 10.535156 C 4.316406 10.613281 4.304688 10.695312 4.328125 10.777344 C 4.351562 10.863281 4.402344 10.929688 4.480469 10.96875 " fill-opacity="1" fill-rule="nonzero"/><path fill="#4ea638" d="M 7.996094 9.015625 C 8.25 9.261719 8.558594 9.386719 8.910156 9.386719 L 8.921875 9.386719 C 9.28125 9.386719 9.59375 9.253906 9.84375 8.996094 C 9.925781 8.910156 9.996094 8.816406 10.050781 8.71875 C 10.105469 8.617188 10.148438 8.511719 10.175781 8.402344 C 10.203125 8.292969 10.214844 8.179688 10.214844 8.066406 C 10.214844 7.953125 10.199219 7.84375 10.167969 7.734375 C 10.140625 7.628906 10.09375 7.523438 10.039062 7.425781 C 9.984375 7.324219 9.910156 7.234375 9.824219 7.148438 L 8.414062 5.765625 C 8.355469 5.707031 8.277344 5.675781 8.1875 5.675781 C 8.101562 5.675781 8.027344 5.707031 7.964844 5.769531 C 7.902344 5.832031 7.871094 5.910156 7.875 5.996094 C 7.875 6.082031 7.90625 6.160156 7.96875 6.222656 L 9.378906 7.605469 C 9.445312 7.667969 9.496094 7.742188 9.527344 7.824219 C 9.5625 7.902344 9.578125 7.988281 9.578125 8.074219 C 9.582031 8.160156 9.566406 8.246094 9.535156 8.328125 C 9.5 8.410156 9.453125 8.484375 9.386719 8.550781 C 9.324219 8.617188 9.25 8.664062 9.167969 8.699219 C 9.085938 8.734375 9 8.75 8.917969 8.75 C 8.828125 8.75 8.746094 8.734375 8.664062 8.703125 C 8.582031 8.671875 8.507812 8.625 8.441406 8.558594 L 7.03125 7.175781 C 6.96875 7.117188 6.894531 7.085938 6.808594 7.085938 C 6.71875 7.085938 6.644531 7.117188 6.582031 7.179688 C 6.519531 7.242188 6.488281 7.320312 6.492188 7.40625 C 6.492188 7.492188 6.523438 7.570312 6.585938 7.632812 L 7.996094 9.015625 " fill-opacity="1" fill-rule="nonzero"/><path fill="#4ea638" d="M 9.984375 4.855469 L 10.074219 4.867188 C 10.125 4.867188 10.179688 4.851562 10.226562 4.824219 L 10.882812 4.460938 L 12.171875 6.769531 C 12.214844 6.847656 12.277344 6.898438 12.363281 6.921875 L 12.453125 6.933594 C 12.503906 6.933594 12.554688 6.917969 12.605469 6.890625 C 12.679688 6.851562 12.734375 6.785156 12.757812 6.699219 C 12.78125 6.617188 12.769531 6.535156 12.726562 6.460938 L 11.441406 4.148438 L 12.09375 3.785156 C 12.171875 3.742188 12.222656 3.675781 12.246094 3.59375 C 12.269531 3.507812 12.261719 3.425781 12.21875 3.351562 C 12.175781 3.273438 12.109375 3.222656 12.027344 3.199219 L 11.9375 3.1875 C 11.886719 3.1875 11.835938 3.199219 11.785156 3.226562 L 9.917969 4.269531 C 9.84375 4.308594 9.789062 4.375 9.765625 4.460938 C 9.742188 4.542969 9.75 4.625 9.792969 4.703125 C 9.835938 4.78125 9.902344 4.828125 9.984375 4.855469 " fill-opacity="1" fill-rule="nonzero"/><path fill="#4ea638" d="M 14.496094 5.632812 C 14.503906 5.675781 14.519531 5.714844 14.546875 5.753906 C 14.570312 5.785156 14.601562 5.816406 14.632812 5.835938 C 14.667969 5.859375 14.707031 5.875 14.746094 5.878906 L 14.800781 5.886719 L 14.863281 5.878906 L 16.800781 5.441406 C 16.886719 5.425781 16.953125 5.378906 17 5.304688 C 17.046875 5.230469 17.0625 5.148438 17.042969 5.0625 C 17.023438 4.976562 16.976562 4.910156 16.902344 4.863281 C 16.851562 4.828125 16.792969 4.8125 16.734375 4.8125 L 16.671875 4.820312 L 15.046875 5.183594 L 14.859375 4.359375 L 15.996094 4.105469 C 16.082031 4.085938 16.148438 4.039062 16.195312 3.964844 C 16.242188 3.890625 16.257812 3.8125 16.238281 3.726562 C 16.21875 3.640625 16.167969 3.570312 16.097656 3.527344 C 16.042969 3.492188 15.988281 3.476562 15.929688 3.476562 L 15.867188 3.480469 L 14.722656 3.738281 L 14.535156 2.917969 L 16.152344 2.554688 C 16.238281 2.535156 16.304688 2.488281 16.351562 2.414062 C 16.398438 2.339844 16.410156 2.257812 16.394531 2.171875 C 16.375 2.085938 16.328125 2.019531 16.253906 1.972656 C 16.199219 1.9375 16.144531 1.921875 16.085938 1.921875 L 16.023438 1.929688 L 14.085938 2.363281 C 14.039062 2.375 14 2.390625 13.96875 2.414062 C 13.933594 2.4375 13.90625 2.46875 13.886719 2.503906 C 13.863281 2.539062 13.847656 2.578125 13.839844 2.617188 C 13.832031 2.660156 13.835938 2.699219 13.84375 2.746094 L 14.496094 5.632812 " fill-opacity="1" fill-rule="nonzero"/><path fill="#4ea638" d="M 18.253906 5.316406 C 18.332031 5.316406 18.402344 5.289062 18.460938 5.238281 C 18.527344 5.179688 18.566406 5.105469 18.570312 5.019531 L 18.714844 2.992188 L 20.296875 5.351562 C 20.359375 5.429688 20.4375 5.472656 20.53125 5.476562 L 20.554688 5.480469 C 20.589844 5.480469 20.625 5.472656 20.65625 5.464844 C 20.695312 5.449219 20.730469 5.429688 20.765625 5.402344 C 20.796875 5.375 20.820312 5.339844 20.835938 5.308594 C 20.855469 5.269531 20.867188 5.226562 20.871094 5.183594 L 21.082031 2.226562 C 21.085938 2.140625 21.0625 2.0625 21.003906 1.996094 C 20.945312 1.929688 20.875 1.894531 20.761719 1.886719 C 20.683594 1.886719 20.613281 1.914062 20.554688 1.964844 C 20.488281 2.019531 20.453125 2.09375 20.445312 2.183594 L 20.300781 4.214844 L 18.722656 1.855469 C 18.660156 1.777344 18.578125 1.730469 18.460938 1.722656 C 18.425781 1.722656 18.390625 1.730469 18.359375 1.738281 C 18.320312 1.753906 18.285156 1.773438 18.253906 1.800781 C 18.21875 1.828125 18.195312 1.863281 18.179688 1.894531 C 18.160156 1.933594 18.148438 1.972656 18.144531 2.019531 L 17.933594 4.972656 C 17.929688 5.0625 17.957031 5.140625 18.011719 5.207031 C 18.070312 5.273438 18.140625 5.308594 18.253906 5.316406 " fill-opacity="1" fill-rule="nonzero"/><path fill="#4ea638" d="M 23.835938 6.554688 C 23.886719 6.582031 23.941406 6.597656 23.996094 6.597656 L 24.078125 6.589844 C 24.160156 6.566406 24.230469 6.515625 24.273438 6.441406 L 24.867188 5.441406 L 25.867188 6.035156 C 25.917969 6.0625 25.972656 6.078125 26.027344 6.078125 L 26.109375 6.070312 C 26.191406 6.046875 26.257812 6 26.304688 5.921875 C 26.347656 5.847656 26.359375 5.765625 26.339844 5.679688 C 26.316406 5.597656 26.265625 5.53125 26.191406 5.484375 L 25.191406 4.894531 L 25.621094 4.167969 L 27.046875 5.011719 C 27.097656 5.042969 27.152344 5.054688 27.207031 5.054688 L 27.289062 5.046875 C 27.371094 5.023438 27.4375 4.972656 27.484375 4.898438 C 27.527344 4.824219 27.539062 4.742188 27.519531 4.65625 C 27.496094 4.574219 27.445312 4.507812 27.371094 4.464844 L 25.671875 3.457031 C 25.632812 3.433594 25.59375 3.417969 25.507812 3.410156 L 25.429688 3.417969 C 25.390625 3.429688 25.351562 3.449219 25.316406 3.472656 C 25.285156 3.5 25.257812 3.53125 25.234375 3.570312 L 23.726562 6.117188 C 23.679688 6.191406 23.667969 6.273438 23.691406 6.359375 C 23.710938 6.441406 23.761719 6.507812 23.835938 6.554688 " fill-opacity="1" fill-rule="nonzero"/><path fill="#4ea638" d="M 29.027344 6.660156 L 29.375 7.023438 C 29.421875 7.074219 29.457031 7.128906 29.480469 7.191406 C 29.503906 7.253906 29.515625 7.320312 29.515625 7.382812 C 29.511719 7.449219 29.5 7.511719 29.472656 7.574219 C 29.449219 7.636719 29.410156 7.6875 29.359375 7.738281 C 29.308594 7.785156 29.253906 7.820312 29.191406 7.84375 C 29.128906 7.867188 29.066406 7.875 29 7.875 C 28.933594 7.875 28.871094 7.863281 28.8125 7.835938 C 28.75 7.8125 28.695312 7.773438 28.648438 7.722656 L 28.296875 7.355469 Z M 26.574219 8.246094 C 26.574219 8.335938 26.601562 8.414062 26.664062 8.476562 C 26.722656 8.539062 26.800781 8.574219 26.894531 8.574219 C 26.980469 8.574219 27.050781 8.542969 27.113281 8.484375 L 27.835938 7.796875 L 28.175781 8.152344 L 27.835938 9.484375 C 27.8125 9.601562 27.839844 9.707031 27.914062 9.785156 C 27.941406 9.816406 27.976562 9.839844 28.015625 9.855469 C 28.054688 9.875 28.09375 9.882812 28.136719 9.886719 L 28.144531 9.886719 C 28.183594 9.886719 28.21875 9.878906 28.253906 9.863281 C 28.292969 9.851562 28.332031 9.828125 28.363281 9.796875 C 28.40625 9.753906 28.4375 9.703125 28.457031 9.640625 L 28.75 8.484375 C 28.828125 8.5 28.914062 8.511719 29.015625 8.515625 C 29.105469 8.515625 29.195312 8.503906 29.277344 8.484375 C 29.375 8.460938 29.46875 8.425781 29.558594 8.378906 C 29.644531 8.328125 29.726562 8.269531 29.800781 8.199219 C 29.910156 8.089844 30 7.964844 30.054688 7.828125 C 30.113281 7.6875 30.144531 7.542969 30.148438 7.398438 C 30.152344 7.253906 30.128906 7.109375 30.078125 6.96875 C 30.027344 6.828125 29.945312 6.699219 29.835938 6.585938 L 29.269531 5.988281 C 29.238281 5.957031 29.203125 5.933594 29.164062 5.914062 C 29.125 5.898438 29.085938 5.890625 29.035156 5.886719 C 29 5.886719 28.960938 5.898438 28.925781 5.910156 C 28.882812 5.925781 28.847656 5.949219 28.816406 5.980469 L 26.675781 8.027344 C 26.609375 8.085938 26.578125 8.160156 26.574219 8.246094 " fill-opacity="1" fill-rule="nonzero"/><path fill="#4ea638" d="M 28.796875 10.59375 C 28.769531 10.625 28.75 10.664062 28.738281 10.699219 C 28.726562 10.738281 28.722656 10.78125 28.726562 10.820312 C 28.730469 10.863281 28.742188 10.902344 28.761719 10.945312 L 29.691406 12.6875 C 29.730469 12.765625 29.796875 12.816406 29.878906 12.84375 C 29.910156 12.851562 29.941406 12.859375 29.972656 12.859375 C 30.023438 12.859375 30.074219 12.84375 30.121094 12.820312 C 30.199219 12.777344 30.25 12.714844 30.277344 12.628906 C 30.300781 12.546875 30.292969 12.464844 30.253906 12.386719 L 29.476562 10.925781 L 30.21875 10.53125 L 30.765625 11.554688 C 30.808594 11.632812 30.875 11.6875 30.957031 11.710938 C 30.988281 11.722656 31.019531 11.726562 31.050781 11.726562 C 31.101562 11.726562 31.148438 11.714844 31.199219 11.6875 C 31.273438 11.648438 31.328125 11.582031 31.355469 11.5 C 31.378906 11.414062 31.371094 11.335938 31.328125 11.257812 L 30.78125 10.230469 L 31.527344 9.832031 L 32.304688 11.296875 C 32.347656 11.371094 32.414062 11.425781 32.496094 11.449219 C 32.527344 11.460938 32.558594 11.464844 32.589844 11.464844 C 32.640625 11.464844 32.691406 11.453125 32.738281 11.425781 C 32.8125 11.386719 32.867188 11.320312 32.894531 11.238281 C 32.917969 11.15625 32.910156 11.074219 32.871094 10.996094 L 31.941406 9.253906 C 31.921875 9.214844 31.894531 9.179688 31.859375 9.152344 C 31.828125 9.128906 31.792969 9.109375 31.75 9.09375 C 31.726562 9.089844 31.703125 9.085938 31.65625 9.085938 C 31.648438 9.085938 31.640625 9.085938 31.632812 9.085938 C 31.589844 9.089844 31.546875 9.101562 31.511719 9.121094 L 28.894531 10.511719 C 28.851562 10.535156 28.820312 10.5625 28.796875 10.59375 " fill-opacity="1" fill-rule="nonzero"/><path fill="#4ea638" d="M 30.308594 13.710938 C 30.273438 13.734375 30.246094 13.761719 30.222656 13.796875 C 30.199219 13.832031 30.183594 13.871094 30.175781 13.910156 C 30.167969 13.953125 30.167969 13.992188 30.179688 14.039062 L 30.585938 15.972656 C 30.601562 16.058594 30.648438 16.125 30.722656 16.171875 C 30.773438 16.207031 30.832031 16.226562 30.894531 16.226562 L 30.960938 16.21875 C 31.046875 16.199219 31.113281 16.152344 31.164062 16.078125 C 31.210938 16.007812 31.226562 15.925781 31.207031 15.839844 L 30.867188 14.21875 L 31.695312 14.046875 L 31.933594 15.183594 C 31.949219 15.269531 31.996094 15.335938 32.070312 15.386719 C 32.125 15.421875 32.179688 15.4375 32.242188 15.4375 L 32.308594 15.429688 C 32.394531 15.414062 32.464844 15.367188 32.511719 15.292969 C 32.558594 15.21875 32.574219 15.136719 32.558594 15.054688 L 32.316406 13.914062 L 33.144531 13.742188 L 33.484375 15.363281 C 33.503906 15.449219 33.550781 15.515625 33.621094 15.566406 C 33.675781 15.597656 33.734375 15.617188 33.792969 15.617188 L 33.859375 15.609375 C 33.945312 15.589844 34.015625 15.546875 34.0625 15.472656 C 34.113281 15.398438 34.125 15.316406 34.109375 15.230469 L 33.703125 13.296875 C 33.695312 13.253906 33.675781 13.214844 33.652344 13.179688 C 33.628906 13.144531 33.597656 13.117188 33.566406 13.097656 C 33.53125 13.074219 33.492188 13.058594 33.394531 13.046875 L 33.335938 13.050781 L 30.425781 13.660156 C 30.378906 13.671875 30.339844 13.6875 30.308594 13.710938 " fill-opacity="1" fill-rule="nonzero"/><path fill="#4ea638" d="M 22.285156 14.921875 C 22.203125 14.894531 22.042969 14.824219 22.007812 14.8125 C 21.707031 14.695312 21.339844 14.625 21.015625 14.765625 C 20.371094 15.050781 19.589844 16.144531 19.472656 16.308594 C 19.578125 16.375 20.402344 16.949219 21.050781 16.664062 C 21.445312 16.492188 23.566406 14.199219 23.777344 12.546875 C 23.425781 13.648438 22.488281 14.988281 22.285156 14.921875 " fill-opacity="1" fill-rule="nonzero"/><path fill="#4ea638" d="M 22.28125 11.613281 C 22.03125 11.679688 21.363281 11.917969 20.902344 12.484375 C 20.222656 13.320312 20.1875 14.617188 20.359375 14.835938 C 20.492188 14.804688 21.625 14.480469 22.109375 13.742188 C 22.566406 13.046875 22.535156 12.039062 22.613281 11.835938 C 22.675781 11.664062 22.992188 11.054688 24.019531 10.074219 C 23.140625 10.617188 22.753906 11.488281 22.28125 11.613281 " fill-opacity="1" fill-rule="nonzero"/><path fill="#4ea638" d="M 20.40625 21.707031 C 20.035156 21.867188 19.609375 22.007812 19.082031 22.09375 C 17.234375 22.394531 16.316406 22.8125 15.566406 23.375 C 15.542969 23.3125 15.519531 23.234375 15.492188 23.140625 C 15.496094 23.128906 15.5 23.113281 15.5 23.097656 C 15.429688 22.28125 15.953125 20.925781 16.054688 20.761719 C 16.101562 20.683594 16.148438 20.617188 16.191406 20.5625 C 16.214844 20.535156 16.230469 20.507812 16.25 20.480469 C 16.53125 20.0625 16.921875 19.410156 16.972656 18.933594 C 17.007812 18.578125 16.828125 18.25 16.625 18 C 16.601562 17.972656 16.488281 17.839844 16.4375 17.769531 C 16.429688 17.757812 16.421875 17.734375 16.417969 17.71875 L 16.023438 17.324219 C 15.53125 18.222656 15.167969 19.105469 15.152344 19.476562 C 15.136719 19.871094 15.359375 20.234375 15.582031 20.488281 C 15.601562 20.515625 15.621094 20.542969 15.648438 20.566406 C 15.6875 20.597656 15.710938 20.648438 15.71875 20.707031 C 15.734375 20.824219 15.382812 21.613281 15.277344 22.363281 C 14.84375 20.824219 13.957031 18.296875 11.804688 17.976562 C 11.804688 17.976562 13.679688 18.964844 14.605469 22.632812 C 15.179688 24.902344 15.164062 25.859375 15.871094 26.457031 C 15.984375 25.382812 15.464844 24.878906 16.082031 24.109375 C 16.695312 23.339844 19.742188 23.078125 20.566406 22.601562 C 20.703125 22.523438 20.851562 22.414062 20.996094 22.296875 L 20.40625 21.707031 " fill-opacity="1" fill-rule="nonzero"/><path fill="#4ea638" d="M 20.929688 17.878906 C 20.949219 17.847656 20.972656 17.816406 20.992188 17.785156 C 20.964844 17.816406 20.945312 17.839844 20.921875 17.867188 L 20.929688 17.878906 " fill-opacity="1" fill-rule="nonzero"/><path fill="#4ea638" d="M 17.964844 20.953125 C 18.1875 20.867188 18.542969 20.601562 18.9375 20.238281 L 17.816406 19.117188 C 17.199219 19.46875 16.5 20.441406 16.386719 20.59375 C 16.492188 20.664062 17.300781 21.195312 17.964844 20.953125 " fill-opacity="1" fill-rule="nonzero"/><path fill="#4ea638" d="M 17.902344 14.851562 L 18.042969 14.988281 C 18.171875 14.65625 18.429688 14.207031 18.90625 13.605469 C 18.558594 13.953125 18.214844 14.390625 17.902344 14.851562 " fill-opacity="1" fill-rule="nonzero"/><path fill="#4ea638" d="M 19.714844 13.753906 C 19.691406 13.726562 19.578125 13.59375 19.527344 13.523438 C 19.398438 13.351562 20.429688 12.046875 21.445312 11.375 C 19.894531 11.992188 18.351562 14.6875 18.25 15.195312 L 19.316406 16.265625 C 19.601562 15.847656 20.007812 15.175781 20.058594 14.683594 C 20.097656 14.332031 19.917969 14.003906 19.714844 13.753906 " fill-opacity="1" fill-rule="nonzero"/><path fill="#4ea638" d="M 20.746094 17.085938 C 20.664062 17.058594 20.503906 16.992188 20.46875 16.980469 C 20.300781 16.914062 20.105469 16.867188 19.914062 16.859375 L 20.8125 17.757812 C 21.410156 17.125 22.039062 16.3125 22.414062 15.574219 C 21.527344 16.914062 20.949219 17.15625 20.746094 17.085938 " fill-opacity="1" fill-rule="nonzero"/><path fill="#4ea638" d="M 26.386719 24.03125 L 11.972656 9.617188 C 13.746094 8.144531 16.023438 7.261719 18.5 7.261719 C 24.148438 7.261719 28.746094 11.855469 28.746094 17.503906 C 28.746094 19.980469 27.859375 22.257812 26.386719 24.03125 Z M 8.257812 17.503906 C 8.257812 15.085938 9.101562 12.863281 10.503906 11.109375 L 24.894531 25.5 C 23.140625 26.902344 20.917969 27.746094 18.5 27.746094 C 12.855469 27.746094 8.257812 23.152344 8.257812 17.503906 Z M 18.5 6.644531 C 12.515625 6.644531 7.644531 11.515625 7.644531 17.503906 C 7.644531 23.488281 12.515625 28.359375 18.5 28.359375 C 24.488281 28.359375 29.359375 23.488281 29.359375 17.503906 C 29.359375 11.515625 24.488281 6.644531 18.5 6.644531 " fill-opacity="1" fill-rule="nonzero"/><g clip-path="url(#68628786c3)"><path fill="#4ea638" d="M 18.5 34.390625 C 9.175781 34.390625 1.613281 26.828125 1.613281 17.503906 C 1.613281 8.175781 9.175781 0.617188 18.5 0.617188 C 27.828125 0.617188 35.390625 8.175781 35.390625 17.503906 C 35.390625 26.828125 27.828125 34.390625 18.5 34.390625 Z M 18.5 0 C 8.851562 0 1 7.851562 1 17.503906 C 1 27.152344 8.851562 35.003906 18.5 35.003906 C 28.152344 35.003906 36.003906 27.152344 36.003906 17.503906 C 36.003906 7.851562 28.152344 0 18.5 0 " fill-opacity="1" fill-rule="nonzero"/></g><path fill="#4ea638" d="M 33.007812 20.300781 C 32.90625 20.867188 32.375 21.210938 31.882812 21.078125 C 31.375 20.941406 31.078125 20.445312 31.164062 19.960938 C 31.257812 19.480469 31.703125 19.121094 32.226562 19.171875 C 32.734375 19.222656 33.121094 19.730469 33.007812 20.300781 Z M 31.882812 23.839844 C 31.636719 24.363281 31.046875 24.566406 30.59375 24.308594 C 30.144531 24.050781 29.972656 23.492188 30.179688 23.046875 C 30.390625 22.605469 30.917969 22.371094 31.40625 22.550781 C 31.890625 22.730469 32.128906 23.316406 31.882812 23.839844 Z M 29.90625 26.984375 C 29.535156 27.429688 28.914062 27.476562 28.539062 27.113281 C 28.167969 26.753906 28.140625 26.171875 28.457031 25.792969 C 28.765625 25.410156 29.34375 25.324219 29.765625 25.617188 C 30.195312 25.914062 30.269531 26.535156 29.90625 26.984375 Z M 27.207031 29.535156 C 26.742188 29.878906 26.121094 29.761719 25.851562 29.320312 C 25.578125 28.878906 25.699219 28.3125 26.097656 28.019531 C 26.492188 27.726562 27.074219 27.789062 27.414062 28.179688 C 27.753906 28.570312 27.671875 29.191406 27.207031 29.535156 Z M 23.957031 31.332031 C 23.421875 31.554688 22.84375 31.277344 22.699219 30.789062 C 22.542969 30.285156 22.808594 29.78125 23.261719 29.589844 C 23.71875 29.410156 24.261719 29.605469 24.496094 30.074219 C 24.726562 30.53125 24.496094 31.121094 23.957031 31.332031 Z M 20.359375 32.257812 C 19.785156 32.335938 19.296875 31.925781 19.277344 31.417969 C 19.253906 30.890625 19.636719 30.464844 20.125 30.394531 C 20.613281 30.34375 21.089844 30.660156 21.199219 31.175781 C 21.304688 31.671875 20.933594 32.195312 20.359375 32.257812 Z M 16.644531 32.257812 C 16.070312 32.195312 15.699219 31.671875 15.804688 31.175781 C 15.914062 30.660156 16.390625 30.34375 16.878906 30.394531 C 17.367188 30.464844 17.75 30.890625 17.726562 31.417969 C 17.707031 31.925781 17.21875 32.335938 16.644531 32.257812 Z M 14.304688 30.789062 C 14.160156 31.277344 13.582031 31.554688 13.046875 31.332031 C 12.507812 31.121094 12.277344 30.53125 12.507812 30.074219 C 12.742188 29.605469 13.285156 29.410156 13.742188 29.589844 C 14.195312 29.78125 14.460938 30.285156 14.304688 30.789062 Z M 11.152344 29.320312 C 10.882812 29.761719 10.261719 29.878906 9.796875 29.535156 C 9.332031 29.191406 9.25 28.570312 9.589844 28.179688 C 9.929688 27.789062 10.511719 27.726562 10.90625 28.019531 C 11.300781 28.3125 11.425781 28.878906 11.152344 29.320312 Z M 8.464844 27.113281 C 8.089844 27.476562 7.46875 27.429688 7.097656 26.984375 C 6.734375 26.535156 6.808594 25.914062 7.238281 25.617188 C 7.660156 25.324219 8.238281 25.410156 8.546875 25.792969 C 8.863281 26.171875 8.835938 26.753906 8.464844 27.113281 Z M 6.410156 24.308594 C 5.957031 24.566406 5.367188 24.363281 5.121094 23.839844 C 4.875 23.316406 5.113281 22.730469 5.597656 22.550781 C 6.085938 22.371094 6.613281 22.605469 6.824219 23.046875 C 7.03125 23.492188 6.859375 24.050781 6.410156 24.308594 Z M 3.996094 20.300781 C 3.882812 19.730469 4.265625 19.222656 4.777344 19.171875 C 5.296875 19.121094 5.746094 19.480469 5.839844 19.960938 C 5.925781 20.445312 5.628906 20.941406 5.121094 21.078125 C 4.628906 21.210938 4.097656 20.867188 3.996094 20.300781 Z M 30.355469 17.503906 C 30.355469 24.039062 25.039062 29.355469 18.5 29.355469 C 11.964844 29.355469 6.648438 24.039062 6.648438 17.503906 L 2.460938 17.503906 C 2.460938 19.667969 2.886719 21.769531 3.722656 23.746094 C 4.53125 25.65625 5.6875 27.371094 7.160156 28.84375 C 8.632812 30.316406 10.347656 31.472656 12.257812 32.28125 C 14.238281 33.117188 16.335938 33.542969 18.5 33.542969 C 20.667969 33.542969 22.765625 33.117188 24.746094 32.28125 C 26.65625 31.472656 28.371094 30.316406 29.84375 28.84375 C 31.316406 27.371094 32.472656 25.65625 33.28125 23.746094 C 34.117188 21.769531 34.542969 19.667969 34.542969 17.503906 L 30.355469 17.503906 " fill-opacity="1" fill-rule="nonzero"/></svg>