<svg viewBox="0 0 50 50" xmlns="http://www.w3.org/2000/svg"><path d="m29 0c-1.09375 0-2 .90625-2 2v3c0 .976563.722656 1.804688 1.65625 1.96875-.410156.664063-.820312 1.414063-1.21875 2.3125-.828125 1.867188-1.625 4.148438-2.25 6.3125l-1.375-.78125c-.207031-.121094-.449219-.167969-.6875-.125-.191406.042969-.363281.140625-.5.28125l-1.34375 1.28125c-1.789062-1.535156-4.117187-2.46875-6.65625-2.46875-5.457031 0-9.949219 4.296875-10.21875 10.21875h-1.5625c-1.558594 0-2.84375 1.285156-2.84375 2.84375v3.3125c0 1.558594 1.285156 2.84375 2.84375 2.84375h.15625v3c0 .21875.023438.191406.03125.21875.007813.027344-.003906.042969 0 .0625.011719.039063.019531.074219.03125.125.027344.097656.078125.246094.125.40625.09375.320313.214844.753906.375 1.28125.316406 1.054688.765625 2.460938 1.1875 3.84375.847656 2.769531 1.6875 5.5 1.6875 5.5.011719.074219.035156.148438.0625.21875.269531.484375.546875.976563.9375 1.4375.390625.460938 1.019531.90625 1.78125.90625h31.5625c.773438 0 1.488281-.378906 1.90625-.875s.621094-1.058594.84375-1.59375c.011719-.03125.023438-.0625.03125-.09375 0 0 .839844-2.730469 1.6875-5.5.421875-1.382812.871094-2.789062 1.1875-3.84375.160156-.527344.28125-.960937.375-1.28125.046875-.160156.097656-.308594.125-.40625.011719-.050781.019531-.085937.03125-.125.003906-.019531-.007812-.035156 0-.0625.007813-.027344.03125 0 .03125-.21875v-3h.15625c1.558594 0 2.84375-1.285156 2.84375-2.84375v-3.3125c0-1.558594-1.285156-2.84375-2.84375-2.84375h-3.15625v-2.1875c0-2.253906-1.058594-6.109375-2.34375-9.65625-.640625-1.773437-1.328125-3.453125-2.03125-4.71875-.09375-.167969-.1875-.3125-.28125-.46875.933594-.164062 1.65625-.992187 1.65625-1.96875v-3c0-1.09375-.90625-2-2-2zm0 2h10v3h-10zm2.09375 5h5.75c.027344.015625.109375.066406.21875.1875.21875.242188.503906.695313.8125 1.25.617188 1.109375 1.289063 2.667969 1.90625 4.375 1.234375 3.414063 2.21875 7.457031 2.21875 9v2.1875h-2c-.011719-.011719-.019531-.019531-.03125-.03125l-13-7.34375c.613281-2.222656 1.445313-4.640625 2.28125-6.53125.460938-1.042969.953125-1.933594 1.34375-2.5.195313-.28125.363281-.472656.46875-.5625.027344-.023437.019531-.023437.03125-.03125zm-16.46875 8.78125c1.976563 0 3.773438.6875 5.1875 1.84375l-6.75 6.375h-6.65625c.253906-4.933594 3.816406-8.21875 8.21875-8.21875zm8.8125 1.15625 12.5 7.0625h-19.96875zm-20.59375 9.0625h44.3125c.472656 0 .84375.371094.84375.84375v3.3125c0 .472656-.371094.84375-.84375.84375h-43.09375c-.019531 0-.042969 0-.0625 0h-1.15625c-.472656 0-.84375-.371094-.84375-.84375v-3.3125c0-.472656.371094-.84375.84375-.84375zm2.15625 7h7v12c0 .550781.449219 1 1 1h3c.550781 0 1-.449219 1-1v-12h2v12c0 .550781.449219 1 1 1h3c.550781 0 1-.449219 1-1v-12h2v12c0 .550781.449219 1 1 1h3c.550781 0 1-.449219 1-1v-12h2v12c0 .550781.449219 1 1 1h3c.550781 0 1-.449219 1-1v-12h7v2.875c-.023437.082031-.046875.21875-.09375.375-.089844.3125-.246094.753906-.40625 1.28125-.316406 1.050781-.734375 2.429688-1.15625 3.8125-.832031 2.71875-1.628906 5.347656-1.65625 5.4375 0 0-.03125.09375-.03125.09375-.191406.441406-.371094.785156-.5.9375-.140625.167969-.132812.1875-.375.1875h-31.5625c-.074219 0-.066406 0-.25-.21875-.167969-.199219-.410156-.589844-.65625-1.03125-.035156-.117187-.828125-2.699219-1.65625-5.40625-.421875-1.382812-.839844-2.761719-1.15625-3.8125-.160156-.527344-.316406-.96875-.40625-1.28125-.046875-.15625-.070312-.292969-.09375-.375zm9 0h1v11h-1zm7 0h1v11h-1zm7 0h1v11h-1zm7 0h1v11h-1z"/></svg>