<svg xmlns="http://www.w3.org/2000/svg" xmlns:xlink="http://www.w3.org/1999/xlink" width="50" zoomAndPan="magnify" viewBox="0 0 37.5 37.499999" height="50" preserveAspectRatio="xMidYMid meet" version="1.0"><defs><g/><clipPath id="bfea2650ef"><path d="M 1.285156 7.742188 L 36 7.742188 L 36 29.207031 L 1.285156 29.207031 Z M 1.285156 7.742188 " clip-rule="nonzero"/></clipPath></defs><g clip-path="url(#bfea2650ef)"><path fill="#4ea638" d="M 34.992188 7.742188 L 2.007812 7.742188 C 1.613281 7.742188 1.292969 8.0625 1.292969 8.460938 L 1.292969 28.535156 C 1.292969 28.929688 1.613281 29.253906 2.007812 29.253906 L 34.992188 29.253906 C 35.386719 29.253906 35.707031 28.929688 35.707031 28.535156 L 35.707031 8.460938 C 35.707031 8.0625 35.386719 7.742188 34.992188 7.742188 Z M 34.273438 27.820312 L 2.726562 27.820312 L 2.726562 9.175781 L 34.273438 9.175781 Z M 34.273438 27.820312 " fill-opacity="1" fill-rule="nonzero"/></g><g fill="#4ea638" fill-opacity="1"><g transform="translate(7.927259, 17.881239)"><g><path d="M 2.03125 0.078125 C 1.539062 0.078125 1.128906 -0.0078125 0.796875 -0.1875 C 0.472656 -0.375 0.238281 -0.628906 0.09375 -0.953125 L 0.734375 -1.734375 L 0.84375 -1.734375 C 0.945312 -1.472656 1.09375 -1.269531 1.28125 -1.125 C 1.476562 -0.976562 1.707031 -0.90625 1.96875 -0.90625 C 2.25 -0.90625 2.457031 -0.988281 2.59375 -1.15625 C 2.738281 -1.320312 2.8125 -1.597656 2.8125 -1.984375 L 2.8125 -5.78125 L 3.953125 -5.78125 L 3.953125 -1.953125 C 3.953125 -1.253906 3.789062 -0.738281 3.46875 -0.40625 C 3.15625 -0.0820312 2.675781 0.078125 2.03125 0.078125 Z M 2.03125 0.078125 "/></g></g></g><g fill="#4ea638" fill-opacity="1"><g transform="translate(12.427217, 17.881239)"><g><path d="M 5.5625 0 L 4.359375 0 L 3.921875 -1.328125 L 1.703125 -1.328125 L 1.265625 0 L 0.09375 0 L 2.09375 -5.78125 L 3.5625 -5.78125 Z M 2.75 -4.578125 L 2 -2.296875 L 3.59375 -2.296875 L 2.84375 -4.578125 Z M 2.75 -4.578125 "/></g></g></g><g fill="#4ea638" fill-opacity="1"><g transform="translate(18.06234, 17.881239)"><g><path d="M 1.890625 0 L 0.75 0 L 0.75 -5.78125 L 1.890625 -5.78125 Z M 1.890625 0 "/></g></g></g><g fill="#4ea638" fill-opacity="1"><g transform="translate(20.711837, 17.881239)"><g><path d="M 1.859375 0 L 0.75 0 L 0.75 -5.78125 L 2.0625 -5.78125 L 4.390625 -2.0625 L 4.484375 -2.078125 L 4.484375 -5.78125 L 5.59375 -5.78125 L 5.59375 0 L 4.421875 0 L 1.953125 -3.984375 L 1.859375 -3.96875 Z M 1.859375 0 "/></g></g></g><g fill="#4ea638" fill-opacity="1"><g transform="translate(27.078445, 17.881239)"><g/></g></g><g fill="#4ea638" fill-opacity="1"><g transform="translate(6.783905, 27.028075)"><g><path d="M 4.421875 -5.78125 L 4.421875 -4.828125 L 1.890625 -4.828125 L 1.890625 -3.296875 L 4.1875 -3.296875 L 4.1875 -2.359375 L 1.890625 -2.359375 L 1.890625 0 L 0.75 0 L 0.75 -5.78125 Z M 4.421875 -5.78125 "/></g></g></g><g fill="#4ea638" fill-opacity="1"><g transform="translate(11.40659, 27.028075)"><g><path d="M 3.15625 0.078125 C 2.625 0.078125 2.15625 -0.0234375 1.75 -0.234375 C 1.34375 -0.453125 1.023438 -0.785156 0.796875 -1.234375 C 0.566406 -1.679688 0.453125 -2.234375 0.453125 -2.890625 C 0.453125 -3.554688 0.566406 -4.109375 0.796875 -4.546875 C 1.023438 -4.992188 1.34375 -5.328125 1.75 -5.546875 C 2.15625 -5.765625 2.625 -5.875 3.15625 -5.875 C 3.6875 -5.875 4.148438 -5.765625 4.546875 -5.546875 C 4.953125 -5.335938 5.269531 -5.007812 5.5 -4.5625 C 5.726562 -4.113281 5.84375 -3.554688 5.84375 -2.890625 C 5.84375 -2.234375 5.726562 -1.679688 5.5 -1.234375 C 5.269531 -0.785156 4.953125 -0.453125 4.546875 -0.234375 C 4.148438 -0.0234375 3.6875 0.078125 3.15625 0.078125 Z M 3.15625 -0.90625 C 3.644531 -0.90625 4.019531 -1.0625 4.28125 -1.375 C 4.539062 -1.695312 4.671875 -2.203125 4.671875 -2.890625 C 4.671875 -3.585938 4.539062 -4.09375 4.28125 -4.40625 C 4.019531 -4.71875 3.644531 -4.875 3.15625 -4.875 C 2.664062 -4.875 2.289062 -4.71875 2.03125 -4.40625 C 1.769531 -4.09375 1.640625 -3.585938 1.640625 -2.890625 C 1.640625 -2.203125 1.769531 -1.695312 2.03125 -1.375 C 2.289062 -1.0625 2.664062 -0.90625 3.15625 -0.90625 Z M 3.15625 -0.90625 "/></g></g></g><g fill="#4ea638" fill-opacity="1"><g transform="translate(17.706066, 27.028075)"><g><path d="M 3.15625 0.078125 C 2.625 0.078125 2.15625 -0.0234375 1.75 -0.234375 C 1.34375 -0.453125 1.023438 -0.785156 0.796875 -1.234375 C 0.566406 -1.679688 0.453125 -2.234375 0.453125 -2.890625 C 0.453125 -3.554688 0.566406 -4.109375 0.796875 -4.546875 C 1.023438 -4.992188 1.34375 -5.328125 1.75 -5.546875 C 2.15625 -5.765625 2.625 -5.875 3.15625 -5.875 C 3.6875 -5.875 4.148438 -5.765625 4.546875 -5.546875 C 4.953125 -5.335938 5.269531 -5.007812 5.5 -4.5625 C 5.726562 -4.113281 5.84375 -3.554688 5.84375 -2.890625 C 5.84375 -2.234375 5.726562 -1.679688 5.5 -1.234375 C 5.269531 -0.785156 4.953125 -0.453125 4.546875 -0.234375 C 4.148438 -0.0234375 3.6875 0.078125 3.15625 0.078125 Z M 3.15625 -0.90625 C 3.644531 -0.90625 4.019531 -1.0625 4.28125 -1.375 C 4.539062 -1.695312 4.671875 -2.203125 4.671875 -2.890625 C 4.671875 -3.585938 4.539062 -4.09375 4.28125 -4.40625 C 4.019531 -4.71875 3.644531 -4.875 3.15625 -4.875 C 2.664062 -4.875 2.289062 -4.71875 2.03125 -4.40625 C 1.769531 -4.09375 1.640625 -3.585938 1.640625 -2.890625 C 1.640625 -2.203125 1.769531 -1.695312 2.03125 -1.375 C 2.289062 -1.0625 2.664062 -0.90625 3.15625 -0.90625 Z M 3.15625 -0.90625 "/></g></g></g><g fill="#4ea638" fill-opacity="1"><g transform="translate(24.005541, 27.028075)"><g><path d="M 2.828125 -5.78125 C 3.773438 -5.78125 4.492188 -5.535156 4.984375 -5.046875 C 5.484375 -4.566406 5.734375 -3.847656 5.734375 -2.890625 C 5.734375 -1.941406 5.484375 -1.222656 4.984375 -0.734375 C 4.492188 -0.242188 3.773438 0 2.828125 0 L 0.75 0 L 0.75 -5.78125 Z M 2.765625 -0.96875 C 3.359375 -0.96875 3.800781 -1.117188 4.09375 -1.421875 C 4.394531 -1.722656 4.546875 -2.210938 4.546875 -2.890625 C 4.546875 -3.566406 4.394531 -4.054688 4.09375 -4.359375 C 3.800781 -4.671875 3.359375 -4.828125 2.765625 -4.828125 L 1.890625 -4.828125 L 1.890625 -0.96875 Z M 2.765625 -0.96875 "/></g></g></g></svg>