<svg xmlns="http://www.w3.org/2000/svg" xmlns:xlink="http://www.w3.org/1999/xlink" width="50" zoomAndPan="magnify" viewBox="0 0 37.5 37.499999" height="50" preserveAspectRatio="xMidYMid meet" version="1.0"><defs><clipPath id="5f17fe70fb"><path d="M 15 1.996094 L 21 1.996094 L 21 14 L 15 14 Z M 15 1.996094 " clip-rule="nonzero"/></clipPath></defs><path fill="#da0106" d="M 22.511719 15.921875 C 19.355469 21.027344 12.441406 31.359375 2.976562 32.5625 C -2.121094 33.734375 15.367188 38.265625 26.199219 25.347656 C 37.054688 12.402344 26.265625 9.851562 22.511719 15.921875 Z M 22.511719 15.921875 " fill-opacity="1" fill-rule="evenodd"/><path fill="#24b532" d="M 25.640625 12.269531 C 25.640625 12.269531 31.898438 10.683594 31.625 16.46875 C 31.5625 16.898438 32.699219 15.558594 31.402344 12.4375 C 32.125 8.6875 31.871094 7.738281 33.566406 6.640625 C 34.78125 5.828125 35.523438 7.332031 35.523438 7.332031 C 35.523438 7.332031 35.683594 7.554688 35.863281 7.441406 C 36.046875 7.328125 34.929688 4.933594 33.042969 5.960938 C 31.152344 6.992188 30.847656 10.941406 30.253906 11.449219 C 29.664062 11.957031 26.417969 10.808594 25.640625 12.269531 Z M 25.640625 12.269531 " fill-opacity="1" fill-rule="evenodd"/><path fill="#f7afb1" d="M 23.507812 16.425781 C 22.117188 18.410156 19.78125 22.324219 17.707031 24.527344 C 17.042969 25.230469 15.664062 26.792969 17.597656 25.105469 C 19.605469 23.359375 23.957031 18.769531 25.925781 15.769531 C 28.582031 11.71875 24.539062 14.957031 23.507812 16.425781 Z M 23.507812 16.425781 " fill-opacity="1" fill-rule="evenodd"/><path fill="#ffab0f" d="M 5.152344 29.910156 C 5.152344 29.910156 8.445312 26.796875 8.585938 23.671875 C 7.574219 24.75 6.507812 25.886719 5.308594 24.507812 C 4.113281 23.128906 6.285156 19.738281 4.199219 15.910156 C 5.148438 20.179688 3.183594 21.910156 2.390625 23.199219 C 1.59375 24.492188 1.832031 26.683594 3.507812 27.359375 C 5.1875 28.039062 4.648438 28.148438 5.152344 29.910156 Z M 5.152344 29.910156 " fill-opacity="1" fill-rule="evenodd"/><path fill="#ffab0f" d="M 12.035156 22.601562 C 12.035156 22.601562 9.644531 20.648438 9.882812 17.597656 C 10.121094 14.546875 11.96875 13.726562 11.804688 10.949219 C 12.183594 13.589844 11.773438 15.867188 11.355469 16.859375 C 10.933594 17.855469 13.492188 18.066406 13.441406 15.449219 C 13.386719 12.828125 11.484375 8.679688 12.859375 5.886719 C 12.414062 11.226562 18.976562 18.277344 12.035156 22.601562 Z M 12.035156 22.601562 " fill-opacity="1" fill-rule="evenodd"/><path fill="#ffab0f" d="M 7.492188 19.917969 C 7.492188 19.917969 5.515625 18.136719 6.410156 14.921875 C 7.308594 11.710938 7.191406 8.605469 7.191406 8.605469 C 7.191406 8.605469 9.945312 16.535156 7.492188 19.917969 Z M 7.492188 19.917969 " fill-opacity="1" fill-rule="evenodd"/><g clip-path="url(#5f17fe70fb)"><path fill="#ffab0f" d="M 20.5625 10.683594 C 20.5625 10.683594 21.371094 9.011719 19.554688 7.277344 C 19.519531 8.546875 17.636719 9.515625 17.601562 7.277344 C 17.570312 5.035156 18.847656 4.367188 17.132812 1.996094 C 17.332031 3.433594 17.164062 5.570312 15.886719 6.972656 C 14.605469 8.378906 14.976562 11.019531 16.492188 12.121094 C 16.757812 10.417969 18.476562 10.082031 18.710938 11.753906 C 18.949219 13.425781 19.957031 13.691406 20.765625 13.59375 C 21.574219 13.492188 19.511719 13.328125 20.5625 10.683594 Z M 20.5625 10.683594 " fill-opacity="1" fill-rule="evenodd"/></g></svg>