<svg width="109" height="184" viewBox="0 0 109 184" fill="none" xmlns="http://www.w3.org/2000/svg"><path d="M103 2H6C3.79086 2 2 3.79086 2 6V119.69C2 121.899 3.79086 123.69 6 123.69H103C105.209 123.69 107 121.899 107 119.69V6C107 3.79086 105.209 2 103 2Z" stroke="#08080D" stroke-width="3"></path><path d="M54.4998 133.468C59.8966 133.468 64.2714 129.098 64.2714 123.708C64.2714 118.318 59.8966 113.948 54.4998 113.948C49.1031 113.948 44.7282 118.318 44.7282 123.708C44.7282 129.098 49.1031 133.468 54.4998 133.468Z" stroke="#08080D" stroke-width="3" stroke-miterlimit="10" stroke-linecap="round"></path><path d="M54.4998 133.468V170.239" stroke="#08080D" stroke-width="3" stroke-miterlimit="10" stroke-linecap="round"></path><path d="M75.9293 170.239H33.0708C31.414 170.239 30.0708 171.582 30.0708 173.239V179C30.0708 180.657 31.414 182 33.0708 182H75.9293C77.5861 182 78.9293 180.657 78.9293 179V173.239C78.9293 171.582 77.5861 170.239 75.9293 170.239Z" stroke="#08080D" stroke-width="3"></path><path d="M80.9742 46.0858C83.5092 50.5247 84.9576 55.6624 84.9576 61.1383C84.9576 77.9403 71.3212 91.5608 54.4995 91.5608C37.6778 91.5608 24.0417 77.9403 24.0417 61.1383C24.0417 44.3363 37.6782 30.7158 54.4995 30.7158C59.7485 30.7158 64.6872 32.0418 68.9983 34.3774" stroke="#DE2E37" stroke-width="3" stroke-miterlimit="10" stroke-linecap="round" stroke-linejoin="round"></path><path d="M42.8374 71.1867C42.3083 71.7153 42.2927 72.6169 42.8374 73.1454C43.3821 73.674 44.2848 73.674 44.814 73.1454L54.7746 63.1965L64.7352 73.1454C65.2644 73.674 66.1826 73.6895 66.7118 73.1454C67.2409 72.6014 67.2409 71.7153 66.7118 71.1867L56.7512 61.2222L66.7118 51.2733C67.2409 50.7447 67.2565 49.8431 66.7118 49.3145C66.1671 48.7705 65.2644 48.7705 64.7352 49.3145L54.7746 59.2635L44.814 49.3145C44.2848 48.7705 43.3666 48.7549 42.8374 49.3145C42.3083 49.8586 42.3083 50.7447 42.8374 51.2733L52.798 61.2222L42.8374 71.1867Z" fill="#DE2E37"></path></svg>