<svg xmlns="http://www.w3.org/2000/svg" xmlns:xlink="http://www.w3.org/1999/xlink" width="50" zoomAndPan="magnify" viewBox="0 0 37.5 37.499999" height="50" preserveAspectRatio="xMidYMid meet" version="1.0"><defs><clipPath id="be7479d5bb"><path d="M 1.148438 1.148438 L 35.933594 1.148438 L 35.933594 35.933594 L 1.148438 35.933594 Z M 1.148438 1.148438 " clip-rule="nonzero"/></clipPath></defs><g clip-path="url(#be7479d5bb)"><path fill="#e60e00" d="M 18.476562 2.84375 C 22.492188 2.84375 26.148438 4.351562 28.914062 6.832031 L 22.214844 13.535156 C 22.382812 13.828125 22.546875 14.074219 22.742188 14.273438 C 22.921875 14.453125 23.140625 14.605469 23.40625 14.761719 L 30.128906 8.042969 C 32.609375 10.808594 34.117188 14.46875 34.117188 18.480469 C 34.117188 27.128906 27.125 34.117188 18.480469 34.117188 C 14.464844 34.117188 10.808594 32.609375 8.039062 30.128906 L 14.832031 23.335938 C 14.683594 23.097656 14.519531 22.882812 14.324219 22.691406 C 14.128906 22.492188 13.886719 22.328125 13.589844 22.15625 L 6.828125 28.917969 C 4.347656 26.152344 2.839844 22.496094 2.839844 18.480469 C 2.839844 9.835938 9.832031 2.84375 18.476562 2.84375 Z M 18.476562 1.132812 C 8.90625 1.132812 1.128906 8.910156 1.128906 18.480469 C 1.128906 28.050781 8.90625 35.828125 18.476562 35.828125 C 28.050781 35.828125 35.828125 28.050781 35.828125 18.480469 C 35.828125 8.910156 28.050781 1.132812 18.476562 1.132812 Z M 18.476562 1.132812 " fill-opacity="1" fill-rule="evenodd"/></g><path fill="#e60e00" d="M 24.558594 19.589844 C 24.714844 19.597656 24.855469 19.679688 24.9375 19.8125 C 25.292969 20.390625 25.527344 21.050781 25.589844 21.734375 C 25.660156 22.355469 24.722656 22.445312 24.675781 21.824219 C 24.625 21.289062 24.441406 20.761719 24.15625 20.296875 C 23.957031 19.984375 24.1875 19.582031 24.558594 19.589844 Z M 20.769531 19.34375 C 21.417969 19.4375 22.113281 19.960938 22.640625 20.457031 C 23.105469 20.878906 22.449219 21.570312 22.003906 21.117188 C 21.617188 20.746094 21.128906 20.4375 20.574219 20.214844 C 20.140625 20 20.292969 19.28125 20.769531 19.34375 Z M 21.671875 17.425781 C 21.75 17.429688 21.824219 17.449219 21.890625 17.488281 C 22.390625 17.769531 22.964844 18.003906 23.527344 18.351562 C 24.074219 18.667969 23.574219 19.480469 23.046875 19.132812 C 22.566406 18.839844 22.007812 18.609375 21.4375 18.289062 C 21.011719 18.0625 21.1875 17.40625 21.671875 17.425781 Z M 17.949219 17.089844 C 18.109375 17.089844 18.253906 17.164062 18.34375 17.296875 C 18.664062 17.765625 19.050781 18.183594 19.496094 18.527344 C 20.011719 18.898438 19.421875 19.664062 18.929688 19.253906 C 18.410156 18.847656 17.953125 18.355469 17.582031 17.8125 C 17.371094 17.515625 17.582031 17.097656 17.949219 17.089844 Z M 19.089844 14.867188 C 19.265625 14.859375 19.425781 14.957031 19.507812 15.109375 C 19.785156 15.613281 20.125 16.078125 20.519531 16.476562 C 20.96875 16.90625 20.304688 17.574219 19.871094 17.125 C 19.402344 16.65625 19.015625 16.117188 18.703125 15.550781 C 18.53125 15.25 18.742188 14.871094 19.089844 14.867188 Z M 15.988281 14 C 16.039062 14.003906 16.089844 14.023438 16.144531 14.050781 C 16.714844 14.371094 17.175781 15.109375 17.488281 15.761719 C 17.777344 16.320312 16.914062 16.730469 16.660156 16.148438 C 16.433594 15.664062 16.085938 15.199219 15.648438 14.789062 C 15.363281 14.480469 15.632812 13.972656 15.988281 14 Z M 16.886719 12.042969 C 16.964844 12.039062 17.039062 12.054688 17.109375 12.09375 C 17.386719 12.230469 17.65625 12.398438 17.90625 12.605469 C 18.210938 12.855469 18.453125 13.152344 18.644531 13.46875 C 18.964844 13.988281 18.175781 14.46875 17.859375 13.945312 C 17.707031 13.699219 17.53125 13.480469 17.328125 13.316406 C 17.324219 13.316406 17.324219 13.316406 17.320312 13.316406 C 17.136719 13.160156 16.921875 13.027344 16.691406 12.910156 C 16.265625 12.695312 16.410156 12.054688 16.886719 12.042969 Z M 14.039062 11.363281 C 14.4375 11.363281 14.804688 11.390625 15.246094 11.476562 C 15.847656 11.59375 15.679688 12.484375 15.078125 12.378906 C 14.675781 12.308594 14.164062 12.234375 13.691406 12.289062 C 13.058594 12.367188 12.980469 11.40625 13.621094 11.375 C 13.765625 11.367188 13.90625 11.363281 14.039062 11.363281 Z M 14.703125 9.222656 C 14.464844 9.222656 14.230469 9.238281 13.992188 9.261719 C 13.015625 9.378906 12.667969 9.628906 11.59375 9.347656 C 10.839844 9.152344 10.207031 9.402344 9.714844 9.886719 C 9.222656 10.378906 9.136719 11.15625 9.179688 11.863281 C 9.21875 12.570312 9.359375 13.269531 9.3125 13.960938 C 9.199219 15.820312 9.789062 17.851562 11.332031 19.394531 C 11.332031 19.394531 11.332031 19.394531 11.335938 19.394531 C 11.996094 20.054688 12.730469 20.421875 13.390625 20.75 C 14.054688 21.082031 14.644531 21.375 15.140625 21.871094 C 15.636719 22.367188 15.980469 22.941406 16.265625 23.625 C 18.101562 28.046875 23.5625 28.878906 26.25 26.195312 C 28.511719 23.929688 28.234375 20.0625 25.738281 17.566406 C 25.074219 16.902344 24.339844 16.539062 23.679688 16.210938 C 23.015625 15.882812 22.421875 15.582031 21.925781 15.089844 C 21.429688 14.589844 21.136719 14 20.808594 13.339844 C 20.476562 12.675781 20.109375 11.941406 19.449219 11.277344 C 18.105469 9.933594 16.378906 9.234375 14.703125 9.222656 Z M 14.703125 9.222656 " fill-opacity="1" fill-rule="evenodd"/></svg>