<svg xmlns="http://www.w3.org/2000/svg" xmlns:xlink="http://www.w3.org/1999/xlink" width="50" zoomAndPan="magnify" viewBox="0 0 37.5 37.499999" height="50" preserveAspectRatio="xMidYMid meet" version="1.0"><defs><clipPath id="cbefaff9a8"><path d="M 7 1.820312 L 26 1.820312 L 26 7 L 7 7 Z M 7 1.820312 " clip-rule="nonzero"/></clipPath><clipPath id="eaad0f549c"><path d="M 1.8125 7 L 35.117188 7 L 35.117188 35.125 L 1.8125 35.125 Z M 1.8125 7 " clip-rule="nonzero"/></clipPath></defs><path fill="#4ea638" d="M 11.222656 27.371094 L 10.722656 24.296875 C 10.6875 24.078125 10.496094 23.917969 10.277344 23.917969 C 9.988281 23.917969 9.777344 24.175781 9.832031 24.457031 L 10.753906 28.996094 C 10.800781 29.21875 10.996094 29.378906 11.222656 29.378906 C 11.449219 29.378906 11.640625 29.21875 11.6875 28.996094 L 12.621094 24.457031 C 12.679688 24.175781 12.460938 23.910156 12.171875 23.910156 C 11.953125 23.910156 11.761719 24.070312 11.726562 24.289062 Z M 11.222656 27.371094 " fill-opacity="1" fill-rule="nonzero"/><path fill="#4ea638" d="M 14.039062 29.382812 L 15.597656 29.382812 C 15.828125 29.382812 16.015625 29.199219 16.015625 28.964844 L 16.015625 28.917969 C 16.015625 28.683594 15.828125 28.5 15.597656 28.5 L 14.503906 28.5 L 14.503906 27.054688 L 15.402344 27.054688 C 15.636719 27.054688 15.820312 26.867188 15.820312 26.632812 C 15.820312 26.402344 15.636719 26.214844 15.402344 26.214844 L 14.503906 26.214844 L 14.503906 24.769531 L 15.597656 24.769531 C 15.828125 24.769531 16.015625 24.582031 16.015625 24.347656 C 16.015625 24.117188 15.828125 23.929688 15.597656 23.929688 L 14.039062 23.929688 C 13.804688 23.929688 13.617188 24.117188 13.617188 24.347656 L 13.617188 28.972656 C 13.617188 29.199219 13.804688 29.382812 14.039062 29.382812 Z M 14.039062 29.382812 " fill-opacity="1" fill-rule="nonzero"/><path fill="#4ea638" d="M 19.171875 24.210938 C 19.039062 24.101562 18.890625 24.015625 18.738281 23.957031 C 18.417969 23.84375 18.09375 23.84375 17.773438 23.957031 C 17.613281 24.015625 17.464844 24.097656 17.347656 24.210938 C 17.214844 24.324219 17.105469 24.46875 17.035156 24.640625 C 16.953125 24.816406 16.914062 25.015625 16.914062 25.234375 L 16.914062 28.058594 C 16.914062 28.292969 16.953125 28.5 17.035156 28.664062 C 17.113281 28.832031 17.21875 28.972656 17.347656 29.085938 C 17.472656 29.199219 17.621094 29.285156 17.78125 29.34375 C 17.9375 29.402344 18.097656 29.429688 18.257812 29.429688 C 18.417969 29.429688 18.585938 29.402344 18.738281 29.34375 C 18.898438 29.285156 19.042969 29.199219 19.175781 29.085938 C 19.304688 28.972656 19.402344 28.832031 19.484375 28.664062 C 19.5625 28.5 19.605469 28.292969 19.605469 28.058594 L 19.605469 26.648438 C 19.605469 26.460938 19.457031 26.3125 19.269531 26.3125 L 18.503906 26.3125 C 18.285156 26.3125 18.105469 26.492188 18.105469 26.714844 C 18.105469 26.933594 18.285156 27.113281 18.503906 27.113281 L 18.710938 27.113281 L 18.710938 28.058594 C 18.710938 28.226562 18.664062 28.34375 18.578125 28.417969 C 18.484375 28.5 18.378906 28.53125 18.253906 28.53125 C 18.125 28.53125 18.019531 28.492188 17.925781 28.417969 C 17.839844 28.34375 17.792969 28.21875 17.792969 28.058594 L 17.792969 25.234375 C 17.792969 25.070312 17.839844 24.949219 17.925781 24.875 C 18.019531 24.796875 18.125 24.761719 18.253906 24.761719 C 18.378906 24.761719 18.484375 24.800781 18.578125 24.875 C 18.664062 24.949219 18.710938 25.074219 18.710938 25.234375 C 18.710938 25.421875 18.859375 25.566406 19.042969 25.566406 L 19.269531 25.566406 C 19.457031 25.566406 19.605469 25.421875 19.605469 25.234375 C 19.605469 25.015625 19.5625 24.808594 19.484375 24.640625 C 19.402344 24.476562 19.296875 24.328125 19.171875 24.210938 Z M 19.171875 24.210938 " fill-opacity="1" fill-rule="nonzero"/><path fill="#4ea638" d="M 21.496094 24.257812 L 20.46875 28.859375 C 20.410156 29.125 20.617188 29.382812 20.886719 29.382812 C 21.09375 29.382812 21.273438 29.238281 21.316406 29.039062 L 21.472656 28.238281 L 22.414062 28.238281 L 22.574219 29.039062 C 22.613281 29.238281 22.792969 29.382812 23 29.382812 C 23.273438 29.382812 23.476562 29.132812 23.417969 28.859375 L 22.386719 24.257812 C 22.339844 24.054688 22.167969 23.917969 21.96875 23.917969 L 21.921875 23.917969 C 21.714844 23.917969 21.539062 24.054688 21.496094 24.257812 Z M 22.246094 27.394531 L 21.632812 27.394531 L 21.941406 25.800781 Z M 22.246094 27.394531 " fill-opacity="1" fill-rule="nonzero"/><path fill="#4ea638" d="M 26.203125 24.363281 L 26.203125 26.886719 L 25.253906 24.242188 C 25.183594 24.050781 25.003906 23.917969 24.789062 23.917969 C 24.515625 23.917969 24.296875 24.136719 24.296875 24.410156 L 24.296875 28.9375 C 24.296875 29.183594 24.496094 29.382812 24.742188 29.382812 C 24.988281 29.382812 25.1875 29.183594 25.1875 28.9375 L 25.1875 26.421875 L 26.15625 29.066406 C 26.222656 29.257812 26.40625 29.382812 26.613281 29.382812 C 26.878906 29.382812 27.101562 29.164062 27.101562 28.898438 L 27.101562 24.363281 C 27.101562 24.117188 26.898438 23.917969 26.652344 23.917969 C 26.402344 23.917969 26.203125 24.117188 26.203125 24.363281 Z M 26.203125 24.363281 " fill-opacity="1" fill-rule="nonzero"/><path fill="#4ea638" d="M 2.960938 6.449219 C 2.886719 6.449219 2.851562 6.539062 2.914062 6.585938 C 3.613281 7.132812 6.117188 9.410156 7.421875 14.847656 C 8.585938 19.6875 12.105469 21.585938 14.890625 20.246094 C 14.902344 20.242188 14.921875 20.234375 14.9375 20.21875 C 15.082031 20.128906 15.164062 19.972656 15.164062 19.8125 C 15.164062 19.28125 15.03125 18.761719 14.769531 18.300781 C 14.136719 17.171875 13.457031 16.070312 12.726562 15 L 12.558594 14.757812 L 12.394531 14.519531 L 12.21875 14.28125 L 12.046875 14.039062 C 11.8125 13.726562 11.582031 13.414062 11.335938 13.109375 C 11.207031 12.953125 11.089844 12.800781 10.960938 12.65625 C 10.902344 12.582031 10.835938 12.5 10.777344 12.429688 L 10.582031 12.203125 L 10.390625 11.980469 C 10.324219 11.910156 10.257812 11.835938 10.195312 11.761719 L 10.097656 11.65625 L 9.996094 11.550781 C 9.929688 11.476562 9.863281 11.402344 9.796875 11.328125 C 9.53125 11.042969 9.257812 10.757812 8.976562 10.476562 C 8.910156 10.402344 8.839844 10.335938 8.773438 10.269531 C 8.707031 10.195312 8.632812 10.128906 8.558594 10.0625 C 8.484375 9.996094 8.417969 9.925781 8.34375 9.859375 L 8.132812 9.65625 C 8.058594 9.589844 7.984375 9.523438 7.917969 9.453125 L 7.707031 9.246094 L 7.488281 9.046875 C 7.414062 8.976562 7.339844 8.910156 7.265625 8.84375 L 6.828125 8.445312 C 6.679688 8.3125 6.527344 8.1875 6.375 8.050781 C 6.546875 8.152344 6.722656 8.253906 6.886719 8.359375 C 6.972656 8.414062 7.054688 8.464844 7.140625 8.519531 L 7.265625 8.597656 L 7.394531 8.683594 C 7.472656 8.738281 7.558594 8.796875 7.640625 8.851562 L 7.886719 9.023438 C 8.046875 9.144531 8.207031 9.257812 8.367188 9.382812 C 9 9.871094 9.609375 10.382812 10.195312 10.9375 C 10.488281 11.210938 10.777344 11.488281 11.054688 11.78125 C 11.195312 11.929688 11.335938 12.074219 11.46875 12.222656 C 11.535156 12.296875 11.601562 12.367188 11.667969 12.449219 L 11.867188 12.675781 C 12 12.828125 12.128906 12.980469 12.253906 13.140625 C 12.378906 13.292969 12.507812 13.453125 12.625 13.613281 C 12.6875 13.695312 12.746094 13.773438 12.804688 13.851562 L 12.984375 14.09375 L 13.160156 14.339844 L 13.332031 14.585938 C 14.039062 15.597656 14.671875 16.65625 15.230469 17.761719 C 15.34375 17.988281 15.523438 18.167969 15.742188 18.28125 C 16.316406 18.582031 17.019531 18.363281 17.332031 17.796875 C 17.339844 17.78125 17.351562 17.761719 17.359375 17.75 C 19.894531 13.035156 13.320312 6.222656 2.960938 6.449219 Z M 2.960938 6.449219 " fill-opacity="1" fill-rule="nonzero"/><path fill="#4ea638" d="M 16.09375 10.230469 C 16.0625 10.277344 16.070312 10.34375 16.109375 10.382812 C 16.652344 10.9375 17.113281 11.515625 17.492188 12.121094 C 18.097656 13.101562 18.453125 14.101562 18.539062 15.097656 C 18.570312 15.4375 18.566406 15.773438 18.539062 16.089844 C 18.523438 16.21875 18.691406 16.269531 18.757812 16.15625 C 19.265625 15.273438 19.808594 14.40625 20.394531 13.574219 L 20.847656 12.933594 L 21.082031 12.621094 C 21.160156 12.515625 21.234375 12.414062 21.320312 12.308594 C 21.480469 12.101562 21.640625 11.894531 21.808594 11.6875 C 21.972656 11.484375 22.140625 11.28125 22.3125 11.082031 L 22.574219 10.789062 C 22.660156 10.691406 22.746094 10.597656 22.832031 10.496094 C 23.003906 10.304688 23.183594 10.109375 23.363281 9.925781 C 23.722656 9.550781 24.097656 9.183594 24.484375 8.824219 C 25.242188 8.113281 26.042969 7.441406 26.867188 6.808594 C 27.074219 6.648438 27.28125 6.496094 27.492188 6.339844 L 27.8125 6.113281 C 27.917969 6.042969 28.023438 5.96875 28.132812 5.894531 L 28.453125 5.683594 C 28.558594 5.609375 28.671875 5.542969 28.777344 5.46875 C 28.996094 5.328125 29.21875 5.195312 29.445312 5.070312 C 29.242188 5.234375 29.050781 5.410156 28.859375 5.574219 L 28.566406 5.835938 L 28.277344 6.09375 C 28.183594 6.179688 28.085938 6.269531 27.992188 6.355469 L 27.707031 6.613281 L 27.425781 6.878906 C 27.332031 6.96875 27.238281 7.054688 27.148438 7.148438 L 26.867188 7.414062 C 26.773438 7.5 26.679688 7.59375 26.59375 7.679688 C 26.5 7.773438 26.40625 7.859375 26.320312 7.953125 C 26.226562 8.046875 26.140625 8.132812 26.046875 8.226562 C 25.6875 8.59375 25.335938 8.957031 24.984375 9.339844 C 24.894531 9.429688 24.808594 9.523438 24.722656 9.617188 L 24.597656 9.757812 L 24.46875 9.898438 C 24.382812 9.992188 24.296875 10.082031 24.21875 10.183594 L 23.964844 10.46875 L 23.71875 10.761719 C 23.632812 10.863281 23.550781 10.957031 23.472656 11.054688 C 23.304688 11.25 23.144531 11.449219 22.984375 11.648438 C 22.667969 12.046875 22.359375 12.449219 22.058594 12.859375 L 21.832031 13.175781 L 21.175781 14.113281 C 20.222656 15.503906 19.335938 16.9375 18.511719 18.410156 C 18.238281 18.894531 18.074219 19.433594 18.019531 19.988281 C 18 20.226562 18.050781 20.464844 18.179688 20.667969 C 18.296875 20.851562 18.476562 21.007812 18.683594 21.085938 C 22.246094 22.523438 26.605469 20.019531 28.070312 13.90625 C 29.804688 6.6875 33.164062 3.75 33.992188 3.117188 C 34.050781 3.070312 34.015625 2.976562 33.945312 2.976562 C 25.515625 2.777344 18.996094 6.160156 16.09375 10.230469 Z M 16.09375 10.230469 " fill-opacity="1" fill-rule="nonzero"/><g clip-path="url(#cbefaff9a8)"><path fill="#4ea638" d="M 12.734375 4.902344 C 14.542969 4.136719 16.472656 3.75 18.457031 3.75 C 19.796875 3.75 21.109375 3.929688 22.375 4.277344 C 22.398438 4.285156 22.417969 4.285156 22.445312 4.269531 C 22.527344 4.238281 22.605469 4.195312 22.6875 4.164062 C 23.410156 3.851562 24.15625 3.570312 24.929688 3.332031 C 25.023438 3.296875 25.03125 3.171875 24.941406 3.132812 C 22.886719 2.257812 20.703125 1.820312 18.457031 1.820312 C 16.214844 1.820312 14.03125 2.257812 11.980469 3.132812 C 10.410156 3.789062 8.964844 4.683594 7.671875 5.78125 C 7.605469 5.839844 7.632812 5.953125 7.71875 5.96875 C 8.433594 6.109375 9.132812 6.28125 9.808594 6.496094 C 9.84375 6.5 9.875 6.5 9.902344 6.480469 C 10.789062 5.855469 11.726562 5.328125 12.734375 4.902344 Z M 12.734375 4.902344 " fill-opacity="1" fill-rule="nonzero"/></g><g clip-path="url(#eaad0f549c)"><path fill="#4ea638" d="M 33.789062 11.988281 C 33.179688 10.542969 32.371094 9.203125 31.394531 7.992188 C 31.347656 7.933594 31.253906 7.941406 31.214844 8.007812 C 31.007812 8.378906 30.816406 8.765625 30.628906 9.164062 C 30.542969 9.351562 30.457031 9.539062 30.375 9.730469 C 30.363281 9.765625 30.363281 9.804688 30.390625 9.835938 C 31.042969 10.738281 31.585938 11.703125 32.019531 12.734375 C 32.785156 14.546875 33.179688 16.476562 33.179688 18.460938 C 33.179688 20.445312 32.792969 22.378906 32.019531 24.191406 C 31.28125 25.941406 30.214844 27.519531 28.863281 28.871094 C 27.511719 30.222656 25.941406 31.28125 24.183594 32.027344 C 22.375 32.792969 20.441406 33.1875 18.457031 33.1875 C 16.472656 33.1875 14.542969 32.800781 12.734375 32.027344 C 10.980469 31.289062 9.402344 30.222656 8.050781 28.871094 C 6.703125 27.527344 5.644531 25.953125 4.898438 24.195312 C 4.132812 22.382812 3.746094 20.453125 3.746094 18.46875 C 3.746094 16.484375 4.132812 14.554688 4.902344 12.742188 C 5.058594 12.375 5.230469 12.015625 5.410156 11.667969 C 5.421875 11.640625 5.421875 11.601562 5.410156 11.574219 C 5.136719 10.96875 4.824219 10.351562 4.457031 9.757812 C 4.417969 9.691406 4.316406 9.691406 4.269531 9.757812 C 3.832031 10.46875 3.453125 11.214844 3.121094 11.988281 C 2.253906 14.039062 1.816406 16.222656 1.816406 18.46875 C 1.816406 20.714844 2.253906 22.898438 3.125 24.949219 C 3.964844 26.933594 5.164062 28.710938 6.695312 30.242188 C 8.226562 31.773438 10.003906 32.972656 11.988281 33.8125 C 14.039062 34.679688 16.222656 35.125 18.464844 35.125 C 20.707031 35.125 22.890625 34.683594 24.941406 33.8125 C 26.925781 32.972656 28.703125 31.773438 30.234375 30.242188 C 31.765625 28.710938 32.964844 26.933594 33.804688 24.949219 C 34.667969 22.898438 35.117188 20.714844 35.117188 18.46875 C 35.101562 16.222656 34.664062 14.039062 33.789062 11.988281 Z M 33.789062 11.988281 " fill-opacity="1" fill-rule="nonzero"/></g></svg>